<svg version="1.1" id="Layer_1" xmlns="http://www.w3.org/2000/svg" xmlns:xlink="http://www.w3.org/1999/xlink" x="0px" y="0px"
	 width="100%" viewBox="0 0 732 784" enable-background="new 0 0 732 784" xml:space="preserve">
<path fill="#0C2941" opacity="1.000000" stroke="none" 
	d="
M147.467606,785.000000 
	C149.476807,781.953491 161.326279,781.032654 163.900375,783.697571 
	C163.991638,783.792114 163.949234,784.015747 163.984558,784.589600 
	C158.645065,785.000000 153.290146,785.000000 147.467606,785.000000 
z"/>
<path fill="#FFFFFE" opacity="1.000000" stroke="none" 
	d="
M542.269226,346.991943 
	C542.179749,365.891571 542.078003,384.791138 542.006226,403.690857 
	C541.974121,412.150879 542.002075,420.611084 541.662354,429.547852 
	C540.023315,429.626984 538.724731,429.229523 537.283447,428.788361 
	C537.607605,434.495026 537.706970,439.771667 538.315247,444.988953 
	C538.521118,446.754700 539.584778,449.191040 540.987183,449.925354 
	C552.691040,456.053772 564.357361,462.345764 576.493652,467.510498 
	C581.194275,469.510864 583.611206,471.679077 585.238037,476.465546 
	C593.771057,501.572083 602.762329,526.522522 611.531799,551.549133 
	C621.212341,579.176086 630.749634,606.853394 640.492920,634.458069 
	C647.207581,653.481812 654.199036,672.407715 660.999146,691.401550 
	C663.526978,698.462219 665.862244,705.591736 668.625793,713.686951 
	C650.366455,705.548157 633.250854,697.911621 616.128906,690.289185 
	C597.184692,681.855591 578.269775,673.354553 559.262512,665.065247 
	C554.549500,663.009827 549.879578,660.813049 544.264832,663.511353 
	C532.201904,669.308350 519.814392,674.425598 507.678253,680.075745 
	C475.534088,695.040833 443.479187,710.197693 411.335236,725.163269 
	C395.933533,732.334045 380.422913,739.271790 364.918610,746.219177 
	C363.733398,746.750244 362.019348,746.992676 360.872650,746.545166 
	C357.855560,745.367798 355.037750,743.689880 352.102112,742.292114 
	C329.550598,731.554688 307.007599,720.799072 284.425720,710.125732 
	C270.235748,703.418823 255.924316,696.967163 241.774490,690.177673 
	C226.266235,682.736450 210.999741,674.781799 195.386963,667.572632 
	C188.677948,664.474731 181.934525,659.531555 173.696945,664.126892 
	C170.747177,665.772461 167.231232,666.366089 164.120880,667.766602 
	C136.567139,680.173523 109.086815,692.744324 81.488655,705.051086 
	C74.302795,708.255432 66.779968,710.704102 59.411907,713.499817 
	C59.994877,709.658813 61.618324,706.867981 62.682766,703.878174 
	C70.266319,682.577454 77.623047,661.195557 85.266991,639.916748 
	C97.865669,604.845215 110.766006,569.881470 123.266258,534.775146 
	C130.630966,514.091797 137.445892,493.212952 144.599060,472.453369 
	C145.065445,471.099854 146.045471,469.484497 147.236160,468.887146 
	C159.456726,462.756348 171.770203,456.810760 183.440033,451.114990 
	C183.440033,443.833984 183.440033,437.635406 183.440033,431.420471 
	C180.095917,432.696960 177.074661,433.850189 174.053391,435.003418 
	C174.028931,406.635437 174.004456,378.267487 173.956070,349.115356 
	C174.550537,347.075439 175.168915,345.819702 175.928329,344.277588 
	C168.381638,339.244141 161.123703,334.403259 153.725266,329.468689 
	C163.696320,324.044159 160.438782,321.524353 153.779953,316.423553 
	C154.863358,315.996033 155.774857,315.636322 156.686371,315.276642 
	C156.790894,314.808472 156.895432,314.340332 156.999954,313.872192 
	C154.242645,312.981506 151.381683,312.318268 148.762436,311.124634 
	C146.832794,310.245270 145.173660,308.723755 143.566513,307.294373 
	C143.459198,307.198944 144.813278,305.460358 145.487656,304.485992 
	C142.350189,304.726410 139.684143,307.133301 137.334732,306.856110 
	C134.833054,306.560974 132.807663,303.386719 130.265625,302.061768 
	C122.086624,297.798767 112.744423,296.941803 104.706604,291.247650 
	C98.150360,286.603058 88.873161,285.862091 80.899040,283.110291 
	C79.004509,282.456512 76.577690,280.992462 76.026070,279.352661 
	C75.203865,276.908478 75.977989,274.187347 79.178841,272.975922 
	C80.978737,272.294708 82.532509,270.963226 84.197159,269.924683 
	C84.164017,269.228149 84.130867,268.531616 84.097717,267.835083 
	C78.454430,266.265717 72.811150,264.696320 66.699661,262.996735 
	C67.019707,262.312103 67.249496,260.609558 68.097054,260.206726 
	C73.066833,257.844635 77.375366,253.379639 83.868423,255.537842 
	C85.645302,256.128479 88.898956,255.790985 89.886673,254.581940 
	C92.849266,250.955460 96.596970,252.265503 100.141396,251.701416 
	C104.263756,251.045364 108.809921,250.526413 112.186501,248.390091 
	C115.880630,246.052856 117.940140,247.232895 120.313942,249.500610 
	C123.566048,252.607346 126.503784,256.075073 129.959061,258.923767 
	C131.683105,260.345184 134.569336,261.886658 136.394257,261.393158 
	C144.604187,259.172943 152.425919,257.944763 159.873489,263.588531 
	C160.752914,264.254944 162.842331,264.179474 163.812286,263.565521 
	C164.439377,263.168579 164.078873,261.164581 164.103134,259.879608 
	C164.117935,259.096649 164.023026,258.311584 163.961044,257.246521 
	C167.753738,257.436310 171.324356,257.921234 174.834717,257.643829 
	C176.292328,257.528656 178.858673,255.725952 178.813980,254.791443 
	C178.437958,246.931335 178.246262,238.956070 176.668579,231.289246 
	C175.043350,223.391296 171.924438,215.800705 169.424591,207.967590 
	C170.073364,207.918289 170.883072,207.812790 171.694031,207.802017 
	C178.735229,207.708359 179.862366,208.443466 181.807404,215.042648 
	C183.442764,220.591232 185.729828,224.873840 192.642258,225.141830 
	C197.466400,225.328842 202.210876,227.056412 207.042191,227.725891 
	C211.432098,228.334198 215.895004,228.695663 220.317734,228.629593 
	C221.790848,228.607574 223.239166,226.925522 224.698822,226.002350 
	C223.945160,224.816757 223.422180,223.355362 222.395279,222.496475 
	C219.088867,219.731094 218.706955,215.500275 222.225952,213.167908 
	C225.671936,210.883926 229.572525,209.285812 234.254608,206.883240 
	C234.254608,226.581451 234.254608,245.077026 234.254608,263.195862 
	C238.081390,263.195862 241.273331,263.195862 244.892090,263.195862 
	C244.892090,235.344727 244.892090,207.761566 244.892090,180.128265 
	C260.867889,180.128265 276.414459,180.128265 292.446167,180.128265 
	C292.446167,208.188995 292.446167,235.919357 292.446167,263.405243 
	C295.846008,263.405243 298.750214,263.405243 302.181030,263.405243 
	C302.181030,251.401459 302.181030,239.784531 302.181030,227.795715 
	C340.832947,227.795715 379.345459,227.795715 418.343170,227.795715 
	C418.343170,239.100510 418.343170,250.847275 418.343170,262.440247 
	C422.022064,262.899261 425.200653,263.295868 428.857788,263.752167 
	C428.857788,235.263687 428.857788,207.167496 428.857788,179.633118 
	C444.825775,179.633118 460.356903,179.633118 476.357208,179.633118 
	C476.357208,207.444473 476.357208,234.512955 476.357208,261.845032 
	C479.735260,261.845032 482.634552,261.845032 486.431580,261.845032 
	C486.431580,241.589722 486.431580,221.431946 486.431580,200.523056 
	C493.799896,203.571030 500.034790,205.908447 504.191284,212.148682 
	C508.045624,217.935272 514.705811,220.807053 521.019409,221.414078 
	C526.972229,221.986420 529.803284,224.561859 532.327332,229.115906 
	C535.855103,235.481018 541.431702,238.263535 548.696777,237.807037 
	C555.948914,237.351379 563.350891,233.868332 570.361450,238.791733 
	C582.524536,236.750854 586.967346,248.135071 596.515930,252.641953 
	C594.228088,254.421173 593.021240,255.439789 591.734558,256.344910 
	C588.254761,258.792603 584.381592,260.806580 581.303650,263.677826 
	C568.489502,275.631439 564.984558,290.739563 567.650330,307.512085 
	C568.294800,311.567139 568.898010,313.949951 563.422180,314.414642 
	C557.081177,314.952698 556.098022,317.254364 557.630493,323.753815 
	C558.020264,325.407074 558.015259,327.153442 558.227478,329.203186 
	C555.129700,329.203186 552.641785,329.057495 550.184814,329.269867 
	C549.093811,329.364166 547.371826,329.950409 547.119690,330.707489 
	C545.330933,336.078400 543.848938,341.551453 542.269226,346.991943 
M650.180420,693.201111 
	C650.281311,693.380676 650.382263,693.560181 650.483215,693.739685 
	C650.343262,693.466125 650.203308,693.192566 649.781250,692.214661 
	C645.307068,678.947693 640.771301,665.701050 636.374878,652.408386 
	C631.361755,637.251221 626.703430,621.972168 621.424072,606.909729 
	C619.093140,600.259277 617.352539,593.367432 608.771301,590.521240 
	C584.229065,582.381165 559.984375,573.345032 535.612000,564.691101 
	C534.024841,564.127563 532.347900,563.816650 530.229736,563.261658 
	C531.055786,567.696716 531.503174,571.448425 532.473267,575.059814 
	C535.673889,586.974670 539.183533,598.806885 542.346375,610.731384 
	C545.466248,622.493774 548.162598,634.370361 551.416992,646.093506 
	C551.956970,648.038513 554.101257,650.108154 556.022888,650.989929 
	C561.256897,653.391846 566.902771,654.893250 572.146912,657.276306 
	C593.836426,667.132385 615.430969,677.197083 637.076782,687.149658 
	C641.387634,689.131775 645.770569,690.957214 650.180420,693.201111 
M468.194641,285.858643 
	C468.194977,293.042023 468.195374,300.225433 468.195648,307.408813 
	C468.195953,315.908569 468.215942,324.408356 468.186462,332.908020 
	C468.174866,336.255981 469.268738,338.083771 473.113678,337.873596 
	C478.264771,337.592010 483.444275,337.879852 488.609009,337.783722 
	C494.435242,337.675293 500.258606,337.412018 505.927460,337.221283 
	C505.895844,318.628876 501.411743,303.676697 483.948242,295.532318 
	C481.595032,294.434875 478.438507,292.011993 480.268005,288.108246 
	C492.064606,285.991730 499.359558,292.687134 505.150146,301.050537 
	C514.672546,314.803833 515.207825,330.733063 515.213989,346.893494 
	C495.856018,346.893494 476.971466,346.893494 457.794342,346.893494 
	C458.090912,339.276642 458.395355,331.825897 450.101074,328.339325 
	C442.553833,332.653870 442.983368,340.031982 443.189606,347.195618 
	C426.451996,347.195618 410.462311,347.154877 394.473358,347.245300 
	C392.387054,347.257080 390.304535,347.943237 388.636169,348.242462 
	C390.029755,357.055542 395.453949,358.467926 402.534302,357.892487 
	C407.998016,357.448456 413.539276,357.601868 419.018158,357.940552 
	C420.461670,358.029785 422.802216,359.625580 422.998535,360.815369 
	C423.547333,364.141541 423.189514,367.617340 423.189514,371.341034 
	C411.846771,371.341034 401.234192,371.341034 390.436340,371.341034 
	C390.436340,374.237640 390.436340,376.806427 390.436340,379.867371 
	C407.742310,379.867371 424.816040,379.867371 442.448090,379.867371 
	C441.996490,384.626434 441.325317,388.837646 441.267975,393.057220 
	C441.202179,397.899414 448.388580,404.594177 451.815338,403.280029 
	C456.981567,401.298767 459.865356,395.650604 458.716156,389.950439 
	C458.297913,387.875885 458.090485,385.758148 457.805908,383.657532 
	C457.307922,379.981964 458.847046,378.672943 462.594757,378.735718 
	C473.924530,378.925476 485.259552,378.804230 496.592529,378.804199 
	C502.360260,378.804169 508.127991,378.804169 513.820679,378.804169 
	C513.820679,407.294800 513.820679,435.180176 513.820679,462.915283 
	C511.344299,462.915283 509.246582,462.915283 506.651001,462.915283 
	C506.651001,438.577698 506.651001,414.515991 506.651001,390.535645 
	C493.903625,390.535645 481.665436,390.535645 469.661255,390.535645 
	C468.816040,399.229248 467.446686,407.551514 467.306946,415.894348 
	C466.966431,436.221344 467.104736,456.558502 467.241791,476.890289 
	C467.295258,484.824371 467.979065,492.753357 468.090515,500.688660 
	C468.111237,502.162506 467.112122,504.574066 466.000275,504.988831 
	C459.350220,507.469421 455.804474,504.819702 455.804260,497.803314 
	C455.804169,495.303406 455.628693,492.788147 455.844299,490.306946 
	C456.216766,486.020966 454.294617,483.076294 450.309448,482.377411 
	C446.539337,481.716217 443.320618,485.609436 443.215668,490.173279 
	C443.123718,494.171051 443.529236,498.213531 443.045258,502.153992 
	C442.826447,503.935577 441.170624,506.726929 439.837006,506.933746 
	C437.213623,507.340546 432.960602,508.895508 432.670776,503.679016 
	C432.484741,500.330200 432.794525,496.956604 432.796082,493.594086 
	C432.809692,464.069214 432.803925,434.544312 432.803925,405.019440 
	C432.803925,399.874023 432.803925,394.728638 432.803925,390.175049 
	C420.127533,390.175049 407.894104,390.402954 395.676147,390.067902 
	C390.462067,389.924896 389.963409,392.646942 390.197510,396.533356 
	C390.524597,401.964722 390.606689,407.425659 391.243530,412.820862 
	C393.243530,429.764557 371.960022,446.337463 356.108337,443.099976 
	C342.368744,440.293854 326.166443,428.384827 327.712708,410.454071 
	C328.279663,403.879669 327.804108,397.215332 327.804108,389.898376 
	C314.350861,389.898376 301.380829,389.898376 287.196075,389.898376 
	C287.196075,401.330261 287.092896,412.753632 287.217499,424.174500 
	C287.480347,448.273773 287.888672,472.371429 288.180695,496.470428 
	C288.276093,504.342651 288.194763,504.334320 280.285492,505.273987 
	C279.571655,505.358826 278.884369,505.666962 276.802917,506.275238 
	C276.802917,500.365173 276.971436,495.132874 276.743378,489.917908 
	C276.592773,486.474823 275.587341,483.169006 271.157379,483.235260 
	C266.287445,483.308075 264.227173,485.446777 264.202179,490.118103 
	C264.174011,495.384033 264.195709,500.650208 264.195709,505.805481 
	C259.352631,505.805481 255.136871,505.805481 250.609955,505.805481 
	C250.609955,466.475830 250.609955,427.536072 250.609955,387.751587 
	C242.696884,388.239899 235.147781,388.685120 227.601944,389.180420 
	C224.017609,389.415680 218.731506,388.459869 217.297195,390.364136 
	C215.560501,392.669922 217.169266,397.430664 217.180603,401.129578 
	C217.220444,414.129059 217.089493,427.129944 217.237915,440.127838 
	C217.320831,447.389008 217.909637,454.643921 218.038498,461.905731 
	C218.054626,462.815155 216.679337,464.503723 215.897598,464.534607 
	C213.330078,464.635925 210.738968,464.139832 207.491852,463.804718 
	C207.491852,436.183380 207.491852,408.683350 207.491852,381.154205 
	C226.220749,381.154205 245.103226,381.154205 264.195770,381.154205 
	C264.195770,385.987793 264.191711,390.472778 264.196960,394.957733 
	C264.201721,399.071411 267.366669,402.769318 270.890289,402.790497 
	C273.782837,402.807892 276.779816,398.858734 276.799988,394.939606 
	C276.823730,390.332184 276.805542,385.724579 276.805542,380.637756 
	C293.780273,380.637756 310.180115,380.637756 326.455109,380.637756 
	C326.455109,376.892853 326.455109,373.654785 326.455109,369.923798 
	C316.711426,369.923798 307.309143,369.923798 298.099121,369.923798 
	C298.099121,365.645142 298.099121,361.877197 298.099121,358.306732 
	C307.965210,357.795410 317.554535,357.574615 327.063995,356.586151 
	C329.108490,356.373596 330.864685,353.387360 332.753662,351.678833 
	C331.223480,350.509552 329.758118,348.436218 328.152374,348.321075 
	C319.250702,347.682892 310.317139,347.406250 301.390106,347.229645 
	C293.290558,347.069427 285.185364,347.195770 276.802094,347.195770 
	C276.802094,343.281219 276.907867,339.969086 276.773621,336.666687 
	C276.627045,333.062195 272.879974,330.030548 268.841492,330.217834 
	C264.745911,330.407776 263.090607,332.809387 263.180084,336.752869 
	C263.257660,340.171661 263.196228,343.593628 263.196228,346.696106 
	C243.696915,346.696106 224.915421,346.696106 205.783157,346.696106 
	C205.664764,332.737457 207.050385,319.119690 212.741776,306.310852 
	C216.810715,297.153442 223.769714,290.795685 233.529282,288.141113 
	C235.443558,287.620453 237.905945,289.114899 240.115509,289.679962 
	C238.800140,291.347992 237.655502,293.194550 236.135345,294.648438 
	C232.501038,298.124329 228.112167,300.964783 225.065964,304.871216 
	C217.925934,314.027588 216.034500,325.191742 214.069672,337.802032 
	C225.745193,337.802032 236.978973,337.893188 248.206558,337.670776 
	C249.422043,337.646698 251.612946,335.840118 251.646790,334.804688 
	C252.194397,318.046295 252.540543,301.279449 252.666656,284.512512 
	C252.677399,283.083771 251.107498,280.909271 249.748795,280.348389 
	C246.338913,278.940857 242.642273,278.206696 239.033905,277.309998 
	C237.145126,276.840637 235.061234,275.971558 233.304443,276.361023 
	C225.703903,278.045990 218.653000,281.179352 213.124390,286.793610 
	C204.231491,295.824310 199.874496,307.054901 196.972580,319.282318 
	C193.926285,332.118011 195.988144,344.847778 195.155640,357.956543 
	C210.886627,357.956543 225.829803,357.956543 240.875031,357.956543 
	C240.875031,362.170959 240.875031,366.049927 240.875031,370.429657 
	C225.495178,370.429657 210.430908,370.429657 196.195541,370.429657 
	C196.195541,386.695435 196.316162,402.451660 196.167419,418.205353 
	C195.941437,442.138245 195.606827,466.070770 195.166367,490.000671 
	C194.891037,504.959229 206.387299,513.318481 217.860962,512.959290 
	C236.342255,512.380554 254.855057,512.833435 273.354248,512.768433 
	C275.771820,512.759949 278.204071,511.937103 280.601440,512.056274 
	C289.812500,512.514099 299.048401,513.981812 308.204407,513.555359 
	C315.434479,513.218567 323.419922,514.518005 329.677917,508.584534 
	C331.316406,507.031036 334.036346,506.433411 336.371582,505.830048 
	C349.595093,502.413574 363.038605,501.744110 376.472565,503.938232 
	C382.792145,504.970398 389.389832,505.738434 394.289032,511.152039 
	C396.062775,513.112000 399.462738,514.667603 402.082642,514.612183 
	C414.278625,514.353699 426.455780,513.305908 438.651550,512.884888 
	C443.399841,512.721069 448.179657,513.725037 452.944672,513.720703 
	C457.876923,513.716248 462.806335,512.896973 467.740967,512.849670 
	C481.405945,512.718628 495.086365,513.131165 508.729889,512.574341 
	C512.144958,512.434937 516.008057,510.075439 518.681946,507.651520 
	C524.711975,502.185089 525.669617,494.419769 525.730286,486.829926 
	C525.926208,462.304413 525.802490,437.776367 525.804199,413.249298 
	C525.804321,411.916229 525.833374,410.583130 525.833618,409.250061 
	C525.835938,396.373688 525.835083,383.497284 525.835083,370.196075 
	C513.840149,370.196075 501.379944,370.219940 488.919983,370.179901 
	C485.658875,370.169434 480.684479,371.171600 479.543030,369.556213 
	C477.868774,367.186829 478.919312,362.879944 478.858643,359.397736 
	C478.851013,358.958466 479.145142,358.513916 479.461334,357.608154 
	C495.472809,357.608154 511.539734,357.608154 526.804016,357.608154 
	C526.804016,348.516876 527.001892,339.926636 526.762512,331.348572 
	C526.271484,313.754211 521.167542,297.825928 507.200684,286.308533 
	C499.723907,280.142975 491.500641,273.993774 480.519012,277.252655 
	C477.717072,278.084106 475.046753,279.719147 472.216949,280.005035 
	C468.733582,280.356995 468.208069,282.244904 468.194641,285.858643 
M473.090240,684.553589 
	C477.140717,682.360901 481.103668,679.984314 485.257141,678.008118 
	C501.370605,670.341675 517.544678,662.802612 534.831726,654.682739 
	C527.426819,625.131531 520.056641,595.718811 512.571228,565.846436 
	C510.465851,566.798035 509.093750,567.301758 507.834137,568.006470 
	C500.192993,572.281677 492.640320,576.718689 484.941101,580.885498 
	C466.198334,591.028870 447.343903,600.967163 428.666199,611.228027 
	C426.111633,612.631409 423.699158,615.063293 422.275024,617.608765 
	C418.164886,624.955322 415.023529,632.858948 410.726959,640.083069 
	C399.506470,658.949036 388.858948,678.270325 372.534180,693.523743 
	C371.441406,694.544739 370.411438,696.278442 370.388977,697.697083 
	C370.213501,708.776978 370.291840,719.860779 370.291840,731.621338 
	C373.095184,730.654297 374.545837,730.291016 375.878693,729.673523 
	C394.888519,720.866211 413.888397,712.037292 432.878143,703.186829 
	C446.045013,697.050293 459.192657,690.872437 473.090240,684.553589 
M315.214600,644.173401 
	C309.455963,632.663513 303.446106,621.269104 298.073853,609.581604 
	C296.173279,605.446838 293.419281,603.137268 289.582703,601.272766 
	C279.317169,596.283936 269.120514,591.149597 258.962555,585.944214 
	C246.434280,579.524170 233.972748,572.973938 220.910995,566.182861 
	C212.070038,596.032715 203.367950,625.413696 194.839218,654.209290 
	C247.839142,679.686829 299.911621,704.718506 352.503998,730.000061 
	C352.583557,728.350281 352.722687,726.762756 352.726349,725.175049 
	C352.747406,716.016602 352.496094,706.848755 352.854370,697.704346 
	C352.997986,694.039124 351.400208,692.091187 348.984558,689.861206 
	C345.015778,686.197571 340.906799,682.482300 337.816559,678.110535 
	C330.115631,667.215942 322.954987,655.939453 315.214600,644.173401 
M288.205048,295.514496 
	C288.205048,309.464813 288.205048,323.415161 288.205048,337.794586 
	C290.476166,337.794586 292.267792,337.794586 294.059387,337.794586 
	C336.390228,337.794556 378.721100,337.807953 421.051910,337.768341 
	C424.335541,337.765259 428.480927,338.499847 430.626007,336.832977 
	C432.303772,335.529236 431.501251,331.033203 431.798615,327.955322 
	C431.814606,327.789856 431.796204,327.620605 431.817108,327.456085 
	C433.767365,312.130890 433.009125,296.840271 431.550568,281.204559 
	C429.602386,281.204559 427.965210,281.169220 426.329956,281.210144 
	C413.398285,281.533752 400.466675,282.149658 387.535736,282.132507 
	C372.603973,282.112701 357.674347,281.403931 342.741119,281.242706 
	C327.243835,281.075378 311.742920,281.149231 296.244598,281.258850 
	C293.577332,281.277679 290.914978,282.001465 288.205048,282.406403 
	C288.205048,286.868256 288.205048,290.694946 288.205048,295.514496 
M135.128815,581.798523 
	C130.372375,583.666687 125.756477,586.240662 120.823631,587.222961 
	C114.766312,588.429138 113.036209,592.505676 111.643349,597.411682 
	C110.881187,600.096313 110.055122,602.767151 109.140152,605.403259 
	C102.560066,624.361267 95.979683,643.319397 89.337463,662.255676 
	C85.583069,672.959106 81.711311,683.621338 77.624695,695.050964 
	C97.112305,686.257141 115.924446,677.763000 134.741104,669.278870 
	C147.817032,663.383179 160.934402,657.576782 173.931244,651.511902 
	C175.445374,650.805359 176.881943,648.878967 177.387268,647.222961 
	C184.444702,624.094910 191.339996,600.917419 198.258759,577.747131 
	C199.832352,572.477295 201.345001,567.189209 203.231689,560.723816 
	C179.379700,565.900879 157.772110,574.235229 135.128815,581.798523 
M316.704010,614.846375 
	C328.043274,637.700012 342.103790,658.737366 358.857788,677.974487 
	C360.297638,679.627747 361.738739,680.892944 363.624908,678.342407 
	C371.013214,668.351685 379.374023,658.944763 385.666992,648.311096 
	C395.053070,632.450745 403.306458,615.887207 411.372070,599.297241 
	C413.942169,594.010864 415.045715,587.758606 415.668030,581.827393 
	C417.290863,566.359741 413.436279,552.386780 403.806427,539.795166 
	C393.178711,525.898743 379.072479,518.620972 362.137909,518.465698 
	C345.757874,518.315552 331.470612,525.036377 320.410400,537.491394 
	C308.037384,551.424805 303.872192,568.066650 307.074310,586.010864 
	C308.793884,595.647095 313.139832,604.814636 316.704010,614.846375 
M542.242188,500.593231 
	C540.082886,514.034241 532.370850,523.253845 520.506348,528.728210 
	C522.110413,534.244202 523.317505,539.373169 525.161865,544.261658 
	C525.911316,546.248047 527.722351,548.562378 529.602539,549.279236 
	C545.602051,555.379517 561.692932,561.247131 577.830383,566.976135 
	C588.123413,570.630310 598.541992,573.931091 609.965881,577.744751 
	C609.428528,575.398499 609.327576,574.636536 609.080444,573.925293 
	C599.556641,546.508728 590.137390,519.054749 580.388184,491.718384 
	C578.346069,485.992523 577.902466,479.031036 571.629883,475.657654 
	C565.087585,472.139160 558.335449,469.011536 551.685181,465.692688 
	C548.083679,463.895325 544.503296,462.055603 540.031189,459.787567 
	C540.812256,473.765594 541.539246,486.775848 542.242188,500.593231 
M206.751266,546.596558 
	C208.811569,540.864502 210.871887,535.132507 213.023224,529.147156 
	C211.333389,528.686096 210.576752,528.345886 209.798889,528.287231 
	C196.224640,527.264709 185.380966,518.665527 182.873032,505.413391 
	C181.258240,496.880676 181.272110,488.023346 180.793655,479.298462 
	C180.526672,474.430023 180.745682,469.534912 180.745682,463.908325 
	C172.485855,467.698669 165.037155,470.853424 157.881577,474.572235 
	C155.917358,475.593048 154.222641,478.082611 153.434448,480.269501 
	C145.282410,502.888153 137.282242,525.562256 129.375092,548.268066 
	C126.709564,555.922241 124.429214,563.710571 121.865547,571.774963 
	C123.457436,571.636292 124.505997,571.752258 125.401848,571.435913 
	C139.390778,566.494995 153.217010,561.036438 167.376404,556.652100 
	C180.046432,552.728882 193.078705,549.975647 206.751266,546.596558 
M418.322662,531.221558 
	C419.155792,532.814758 420.039398,534.383789 420.812988,536.005432 
	C423.646423,541.945129 426.900482,547.734619 429.158966,553.887878 
	C433.896271,566.794739 432.890045,580.115173 430.601990,594.565369 
	C456.997803,579.863403 482.671417,565.563660 509.074585,550.857605 
	C507.764709,545.858337 505.520081,540.222229 505.010162,534.433411 
	C504.589386,529.656982 502.665527,529.192322 498.778900,529.210754 
	C473.626221,529.330078 448.472626,529.250366 423.319611,529.323303 
	C421.670410,529.328125 420.023315,530.056396 418.322662,531.221558 
M247.806625,564.590271 
	C262.435669,571.067566 274.909760,582.031555 291.460938,586.193115 
	C288.541748,565.152954 293.330200,546.674377 305.986664,529.281006 
	C280.327667,529.281006 256.401093,529.243164 232.475830,529.404053 
	C231.395096,529.411316 229.718582,531.031067 229.356644,532.216431 
	C227.727844,537.550598 226.763031,543.097473 224.973633,548.369019 
	C223.935394,551.427612 225.133072,552.627502 227.417984,553.821411 
	C234.010544,557.266296 240.581497,560.752380 247.806625,564.590271 
M334.191376,399.499634 
	C334.191376,405.156006 334.057495,410.817322 334.267456,416.465881 
	C334.336517,418.324127 334.786713,420.585724 335.930115,421.918884 
	C343.541931,430.794006 352.304749,437.286438 364.992889,433.787781 
	C375.731995,430.826508 387.743439,423.841949 386.966705,408.256561 
	C386.230652,393.486877 386.808441,378.651703 386.808411,363.845337 
	C386.808411,359.740723 386.808411,355.636108 386.808411,351.447876 
	C369.029907,351.447876 351.815704,351.447876 334.191376,351.447876 
	C334.191376,367.301392 334.191376,382.900574 334.191376,399.499634 
M443.947479,479.674072 
	C448.183411,479.674072 452.419373,479.674072 456.509460,479.674072 
	C456.509460,457.537872 456.509460,436.008606 456.509460,414.479187 
	C451.962494,414.479187 447.731171,414.479187 443.312836,414.479187 
	C443.312836,436.186371 443.312836,457.594482 443.947479,479.674072 
M277.819733,423.554932 
	C277.819733,420.478790 277.819733,417.402649 277.819733,414.544739 
	C272.827911,414.544739 268.596863,414.544739 264.471313,414.544739 
	C264.471313,436.435913 264.471313,457.960205 264.471313,479.541260 
	C268.998169,479.541260 273.228210,479.541260 277.819733,479.541260 
	C277.819733,461.022125 277.819733,442.780182 277.819733,423.554932 
M442.357880,296.541199 
	C442.781342,305.230133 443.204773,313.919067 443.621826,322.476807 
	C448.117188,322.476807 452.357574,322.476807 456.823730,322.476807 
	C456.823730,318.981018 456.823914,315.829163 456.823669,312.677307 
	C456.822968,303.344208 457.019562,294.004944 456.729736,284.680817 
	C456.603485,280.619324 455.895172,275.884277 450.670563,275.355103 
	C445.771790,274.858978 445.131836,279.750824 443.381866,282.908020 
	C442.878235,283.816650 443.213257,285.194427 443.177917,286.357544 
	C443.082062,289.512970 442.993835,292.668671 442.357880,296.541199 
M276.823975,290.571594 
	C276.821899,288.079773 276.975342,285.575806 276.781433,283.098999 
	C276.487427,279.343781 274.101990,276.583405 270.619385,276.758148 
	C268.694153,276.854767 266.167633,279.533203 265.247864,281.632874 
	C263.920715,284.662659 263.397552,288.207458 263.261383,291.562164 
	C262.978668,298.527740 263.176025,305.512878 263.176025,312.489960 
	C263.176025,316.206451 263.176025,319.922943 263.176025,323.572784 
	C267.879913,323.572784 272.142761,323.572784 276.823975,323.572784 
	C276.823975,312.735138 276.823975,302.143463 276.823975,290.571594 
M348.619629,252.190475 
	C345.026184,256.339996 343.173767,260.956146 344.590393,266.564941 
	C355.003357,266.564941 365.220184,266.564941 375.403503,266.564941 
	C376.571259,256.672058 374.051880,252.007965 365.257538,248.007675 
	C359.511902,245.394165 354.625031,245.602234 348.619629,252.190475 
M446.028839,202.635391 
	C446.028839,209.591934 446.028839,216.548462 446.028839,224.155777 
	C450.730865,223.543610 454.687469,223.028488 458.545410,222.526215 
	C458.993927,216.380859 459.554535,210.649780 459.785431,204.905441 
	C459.963043,200.486816 457.078461,197.480881 453.334351,196.583511 
	C449.872070,195.753693 447.388397,198.474457 446.028839,202.635391 
M263.034668,199.791779 
	C262.412567,201.772659 261.215424,203.771347 261.276123,205.731049 
	C261.458435,211.614517 262.131653,217.482788 262.620056,223.439209 
	C266.649231,223.439209 270.666382,223.439209 274.831482,223.439209 
	C274.831482,216.729752 274.772766,210.411423 274.853973,204.094879 
	C274.901031,200.432205 273.135040,197.854370 269.752502,197.351746 
	C267.820343,197.064636 265.624756,198.550003 263.034668,199.791779 
M400.183746,250.857681 
	C403.350525,250.044540 406.252014,248.374557 403.935547,244.934357 
	C402.628876,242.993896 399.326141,241.672028 396.855591,241.560852 
	C395.699371,241.508820 393.427277,244.943893 393.346375,246.869324 
	C393.191620,250.553558 396.520050,250.742538 400.183746,250.857681 
M453.510925,248.864136 
	C457.029419,248.516983 459.438782,247.210220 458.874329,243.038284 
	C458.358856,239.227997 455.569214,238.532745 452.773956,239.300003 
	C451.017059,239.782242 448.960205,241.611618 448.346436,243.309616 
	C447.078796,246.816696 449.730682,248.180832 453.510925,248.864136 
M269.424713,248.866699 
	C270.904541,248.018814 273.142731,247.513687 273.711975,246.254227 
	C275.044189,243.306793 274.078674,240.250809 270.813477,239.331039 
	C268.379089,238.645309 264.915588,238.078690 264.253296,242.142868 
	C263.704590,245.510162 263.603302,248.929047 269.424713,248.866699 
M325.079803,250.860672 
	C329.276764,250.204086 328.354401,246.682419 327.415558,244.820786 
	C326.693909,243.389801 323.060516,241.923233 321.860229,242.573502 
	C319.818420,243.679703 318.671997,246.438507 317.149323,248.502899 
	C318.850830,249.292053 320.527618,250.143356 322.267944,250.834839 
	C322.835693,251.060455 323.568970,250.869507 325.079803,250.860672 
z"/>
<path fill="#092A46" opacity="1.000000" stroke="none" 
	d="
M542.629333,347.002014 
	C543.848938,341.551453 545.330933,336.078400 547.119690,330.707489 
	C547.371826,329.950409 549.093811,329.364166 550.184814,329.269867 
	C552.641785,329.057495 555.129700,329.203186 558.227478,329.203186 
	C558.015259,327.153442 558.020264,325.407074 557.630493,323.753815 
	C556.098022,317.254364 557.081177,314.952698 563.422180,314.414642 
	C568.898010,313.949951 568.294800,311.567139 567.650330,307.512085 
	C564.984558,290.739563 568.489502,275.631439 581.303650,263.677826 
	C584.381592,260.806580 588.254761,258.792603 591.734558,256.344910 
	C593.021240,255.439789 594.228088,254.421173 596.515930,252.641953 
	C586.967346,248.135071 582.524536,236.750854 570.361450,238.791733 
	C563.350891,233.868332 555.948914,237.351379 548.696777,237.807037 
	C541.431702,238.263535 535.855103,235.481018 532.327332,229.115906 
	C529.803284,224.561859 526.972229,221.986420 521.019409,221.414078 
	C514.705811,220.807053 508.045624,217.935272 504.191284,212.148682 
	C500.034790,205.908447 493.799896,203.571030 486.431580,200.523056 
	C486.431580,221.431946 486.431580,241.589722 486.431580,261.845032 
	C482.634552,261.845032 479.735260,261.845032 476.357208,261.845032 
	C476.357208,234.512955 476.357208,207.444473 476.357208,179.633118 
	C460.356903,179.633118 444.825775,179.633118 428.857788,179.633118 
	C428.857788,207.167496 428.857788,235.263687 428.857788,263.752167 
	C425.200653,263.295868 422.022064,262.899261 418.343170,262.440247 
	C418.343170,250.847275 418.343170,239.100510 418.343170,227.795715 
	C379.345459,227.795715 340.832947,227.795715 302.181030,227.795715 
	C302.181030,239.784531 302.181030,251.401459 302.181030,263.405243 
	C298.750214,263.405243 295.846008,263.405243 292.446167,263.405243 
	C292.446167,235.919357 292.446167,208.188995 292.446167,180.128265 
	C276.414459,180.128265 260.867889,180.128265 244.892090,180.128265 
	C244.892090,207.761566 244.892090,235.344727 244.892090,263.195862 
	C241.273331,263.195862 238.081390,263.195862 234.254608,263.195862 
	C234.254608,245.077026 234.254608,226.581451 234.254608,206.883240 
	C229.572525,209.285812 225.671936,210.883926 222.225952,213.167908 
	C218.706955,215.500275 219.088867,219.731094 222.395279,222.496475 
	C223.422180,223.355362 223.945160,224.816757 224.698822,226.002350 
	C223.239166,226.925522 221.790848,228.607574 220.317734,228.629593 
	C215.895004,228.695663 211.432098,228.334198 207.042191,227.725891 
	C202.210876,227.056412 197.466400,225.328842 192.642258,225.141830 
	C185.729828,224.873840 183.442764,220.591232 181.807404,215.042648 
	C179.862366,208.443466 178.735229,207.708359 171.694031,207.802017 
	C170.883072,207.812790 170.073364,207.918289 169.424591,207.967590 
	C171.924438,215.800705 175.043350,223.391296 176.668579,231.289246 
	C178.246262,238.956070 178.437958,246.931335 178.813980,254.791443 
	C178.858673,255.725952 176.292328,257.528656 174.834717,257.643829 
	C171.324356,257.921234 167.753738,257.436310 163.961044,257.246521 
	C164.023026,258.311584 164.117935,259.096649 164.103134,259.879608 
	C164.078873,261.164581 164.439377,263.168579 163.812286,263.565521 
	C162.842331,264.179474 160.752914,264.254944 159.873489,263.588531 
	C152.425919,257.944763 144.604187,259.172943 136.394257,261.393158 
	C134.569336,261.886658 131.683105,260.345184 129.959061,258.923767 
	C126.503784,256.075073 123.566048,252.607346 120.313942,249.500610 
	C117.940140,247.232895 115.880630,246.052856 112.186501,248.390091 
	C108.809921,250.526413 104.263756,251.045364 100.141396,251.701416 
	C96.596970,252.265503 92.849266,250.955460 89.886673,254.581940 
	C88.898956,255.790985 85.645302,256.128479 83.868423,255.537842 
	C77.375366,253.379639 73.066833,257.844635 68.097054,260.206726 
	C67.249496,260.609558 67.019707,262.312103 66.699661,262.996735 
	C72.811150,264.696320 78.454430,266.265717 84.097717,267.835083 
	C84.130867,268.531616 84.164017,269.228149 84.197159,269.924683 
	C82.532509,270.963226 80.978737,272.294708 79.178841,272.975922 
	C75.977989,274.187347 75.203865,276.908478 76.026070,279.352661 
	C76.577690,280.992462 79.004509,282.456512 80.899040,283.110291 
	C88.873161,285.862091 98.150360,286.603058 104.706604,291.247650 
	C112.744423,296.941803 122.086624,297.798767 130.265625,302.061768 
	C132.807663,303.386719 134.833054,306.560974 137.334732,306.856110 
	C139.684143,307.133301 142.350189,304.726410 145.487656,304.485992 
	C144.813278,305.460358 143.459198,307.198944 143.566513,307.294373 
	C145.173660,308.723755 146.832794,310.245270 148.762436,311.124634 
	C151.381683,312.318268 154.242645,312.981506 156.999954,313.872192 
	C156.895432,314.340332 156.790894,314.808472 156.686371,315.276642 
	C155.774857,315.636322 154.863358,315.996033 153.779953,316.423553 
	C160.438782,321.524353 163.696320,324.044159 153.725266,329.468689 
	C161.123703,334.403259 168.381638,339.244141 175.928329,344.277588 
	C175.168915,345.819702 174.550537,347.075439 173.830826,348.661102 
	C162.964355,345.785828 152.809830,341.780548 146.241440,331.692932 
	C144.540222,329.080231 141.250885,327.548065 138.898605,325.302185 
	C135.146072,321.719391 132.218246,317.834625 137.976562,312.172394 
	C129.533188,312.989288 122.514061,313.668365 115.494926,314.347473 
	C115.243294,313.717407 114.991661,313.087341 114.740028,312.457306 
	C117.501762,310.097870 120.263496,307.738464 123.248901,305.187958 
	C117.847969,304.382202 113.181091,303.518768 108.475510,303.021698 
	C100.692902,302.199677 100.682388,302.299194 99.425911,293.793060 
	C97.417542,294.280823 95.283234,294.384338 93.573235,295.289490 
	C87.603806,298.449310 86.597221,298.121460 84.308052,291.289886 
	C82.428146,291.289886 80.444252,291.061890 78.540863,291.355621 
	C76.726990,291.635559 74.441620,293.471436 73.330734,292.861542 
	C69.447121,290.729462 65.864250,287.970581 62.512032,285.053497 
	C62.110809,284.704346 63.386150,281.244385 64.658958,280.414917 
	C66.942627,278.926727 69.814789,278.341583 72.641327,277.305634 
	C73.608841,274.048462 72.734398,272.276642 68.876297,271.696808 
	C65.921783,271.252716 63.118401,269.803131 60.415649,268.439240 
	C60.857018,267.919525 61.130527,267.761322 61.404030,267.603088 
	C60.921974,267.717102 60.439926,267.831085 59.957874,267.945099 
	C57.670147,268.181854 55.382423,268.418579 52.244057,268.743378 
	C52.436058,267.370483 52.154793,265.689575 52.863144,264.922180 
	C57.117542,260.313263 60.980778,254.898590 66.179977,251.732498 
	C71.303841,248.612289 77.779640,247.489624 83.808205,246.144562 
	C89.094917,244.965012 94.639687,244.977417 99.967361,243.935913 
	C104.961617,242.959595 109.877899,241.465576 114.720512,239.871353 
	C118.376183,238.667862 121.629662,239.370895 123.602310,242.280563 
	C130.371704,252.265411 139.123672,253.973175 150.165268,250.410965 
	C152.917328,249.523102 156.645798,251.804993 159.959244,252.459015 
	C161.867844,252.835724 164.208664,253.581238 165.673004,252.830536 
	C166.818680,252.243210 167.445175,249.588058 167.375320,247.889832 
	C167.192505,243.445175 166.912811,238.926178 165.912811,234.612762 
	C164.576782,228.849930 162.474564,223.267929 160.793900,217.580933 
	C159.002258,211.518539 157.318451,205.424255 155.467422,198.921860 
	C165.869629,199.336914 174.890930,199.474136 183.845901,200.316589 
	C185.059738,200.430786 186.941803,204.151016 186.806274,206.081604 
	C186.152390,215.395386 189.044800,214.219025 195.434692,215.847107 
	C200.500534,217.137833 205.772781,217.618561 210.904175,218.450974 
	C214.104843,205.553986 223.582199,201.211929 234.023987,198.497086 
	C234.023987,193.397461 234.182861,188.316360 233.910110,183.258499 
	C233.843506,182.023621 232.624115,180.430374 231.486816,179.743393 
	C225.048599,175.854233 221.125717,171.069275 221.866714,162.764587 
	C222.600815,154.537277 222.027267,146.193268 222.027267,137.324387 
	C223.821472,137.230179 225.802551,136.798599 227.669128,137.093002 
	C232.241180,137.814148 234.274139,135.406097 235.740921,131.579590 
	C244.460739,108.831360 253.237396,86.104713 262.084229,63.405602 
	C263.384064,60.070488 265.159332,56.920654 266.714600,53.685093 
	C267.451813,53.780586 268.188995,53.876083 268.926208,53.971577 
	C270.973022,58.938931 273.168243,63.851070 275.040344,68.883430 
	C282.207153,88.148376 289.782867,107.285446 296.126984,126.820641 
	C298.777557,134.982315 302.432098,138.783890 310.958923,137.106689 
	C311.377258,137.024414 311.878357,137.363068 313.172150,137.762009 
	C309.858704,151.362396 315.404663,165.979858 306.954681,179.115158 
	C307.546326,179.366791 308.138000,179.618423 308.729675,179.870056 
	C310.127045,177.890717 311.950897,176.088440 312.857330,173.905273 
	C325.060150,144.515121 336.902466,114.972885 349.362305,85.693092 
	C354.006989,74.778374 356.960114,63.908936 356.128998,51.951145 
	C355.582153,44.082939 356.172089,36.141983 355.963043,28.241276 
	C355.865631,24.558977 357.408508,22.596334 360.847534,23.131964 
	C365.507263,23.857714 370.477692,24.480850 374.541199,26.618546 
	C378.729675,28.822002 382.386414,29.466610 386.830536,28.269279 
	C391.808105,26.928213 396.915222,26.067856 401.965973,24.998320 
	C402.241241,25.428080 402.516541,25.857840 402.791840,26.287600 
	C400.570618,29.625935 398.551605,33.124187 396.072998,36.258999 
	C393.431580,39.599716 393.796326,42.151745 397.079010,44.647118 
	C399.689362,46.631397 402.188843,48.761517 404.923859,50.977856 
	C392.700195,60.062756 379.818878,58.113625 366.812531,53.104393 
	C364.452545,64.683380 367.027710,74.271072 370.853485,83.779083 
	C382.670074,113.146332 394.322388,142.579651 406.122498,171.953598 
	C407.272858,174.817184 408.052948,178.310425 412.805420,179.217499 
	C404.227539,165.776047 410.120026,151.326569 407.312103,137.577774 
	C408.382507,137.376587 409.296204,137.079315 410.218170,137.050919 
	C419.647430,136.760468 419.653076,136.774643 422.860077,128.211182 
	C430.881348,106.792534 438.886078,85.367653 446.932800,63.958584 
	C447.748047,61.789478 448.606506,59.588821 449.815491,57.631714 
	C450.670746,56.247223 452.012817,54.624207 453.405731,54.314781 
	C454.232147,54.131199 456.034119,56.094009 456.611877,57.431171 
	C458.910828,62.751953 460.966339,68.181763 462.993835,73.615311 
	C470.410889,93.492569 477.781738,113.387070 485.166138,133.276520 
	C485.985321,135.482834 486.968658,137.197372 489.887024,136.106369 
	C490.913239,135.722733 492.197357,136.014847 493.363556,136.021988 
	C499.948090,136.062332 500.165955,136.935257 499.482422,143.377380 
	C498.730835,150.461716 498.952637,157.666367 499.022858,164.815933 
	C499.089722,171.620438 495.903107,176.021072 489.974335,178.986343 
	C488.672638,179.637375 487.265839,181.407578 487.121948,182.788910 
	C486.729797,186.553741 486.987152,190.386246 486.987152,193.689728 
	C491.499329,195.330307 495.713165,196.327347 499.366425,198.341248 
	C503.017548,200.353989 506.488739,203.024490 509.351135,206.055969 
	C513.248474,210.183502 517.893799,212.627457 523.279785,212.936127 
	C530.238098,213.334900 534.532349,217.267227 537.696960,222.632187 
	C542.709412,231.129883 545.143005,230.693314 553.161865,228.582703 
	C556.294495,227.758224 559.885559,227.545349 563.045349,228.173386 
	C571.410889,229.836136 580.311584,230.800507 587.751831,234.530914 
	C594.409302,237.868820 599.656433,244.288986 604.899597,249.931152 
	C605.848633,250.952393 604.504761,255.449860 602.937195,257.181946 
	C599.755920,260.697021 596.137329,264.440094 591.911255,266.258301 
	C582.594788,270.266602 578.450073,277.909760 577.296875,286.749390 
	C576.205322,295.116058 576.870178,303.841034 577.794434,312.295593 
	C578.397888,317.815582 574.844727,320.374878 572.266052,323.827026 
	C569.751892,327.192719 567.153320,330.496216 564.553772,333.796997 
	C563.234741,335.471924 562.150208,337.671997 560.407959,338.610718 
	C554.738770,341.665344 548.815125,344.247864 542.629333,347.002014 
M414.329834,193.015137 
	C406.633270,193.015137 398.936707,193.015137 390.774384,193.015137 
	C390.774384,196.426147 390.774384,200.164322 390.774384,204.401611 
	C385.305603,204.401611 380.303070,204.401611 375.374420,204.401611 
	C374.913574,201.077744 374.431427,197.600021 373.981934,194.357941 
	C364.264771,194.357941 355.190369,194.357941 345.883850,194.357941 
	C345.883850,197.660278 345.883850,200.614761 345.883850,203.640839 
	C339.775757,203.640839 333.919739,203.640839 328.335327,203.640839 
	C328.335327,199.918518 328.335327,196.567261 328.335327,192.842239 
	C319.616974,193.343658 311.004700,193.838959 303.005280,194.299026 
	C303.005280,202.309204 303.005280,210.038147 303.005280,217.989197 
	C321.419159,217.989197 339.234100,217.989197 357.049072,217.989212 
	C375.545135,217.989212 394.043182,217.844574 412.535919,218.092606 
	C417.068573,218.153381 418.325714,216.667068 418.065521,212.368378 
	C417.733948,206.889618 418.116913,201.369492 417.863770,195.882339 
	C417.817993,194.889771 416.192413,193.970078 414.329834,193.015137 
M245.510376,146.013275 
	C241.814026,146.477493 238.117691,146.941696 234.218704,147.431366 
	C234.218704,154.158081 234.218704,160.899628 234.218704,168.300659 
	C256.140991,168.300659 277.858307,168.300659 299.741852,168.300659 
	C300.250305,160.840576 300.712280,154.063004 301.192749,147.013641 
	C297.411774,147.013641 294.419922,147.219620 291.468536,146.961914 
	C287.716339,146.634308 286.963409,148.806900 287.030304,151.742218 
	C287.176208,158.147141 287.212311,158.234985 280.535004,157.959229 
	C278.358856,157.869370 276.207306,157.184082 273.909576,156.745346 
	C273.909576,153.013855 273.909576,149.713165 273.909576,147.113586 
	C269.192139,146.744064 264.771637,146.397797 259.821686,146.010056 
	C260.173370,150.310349 260.481995,154.084167 260.828827,158.325485 
	C257.771179,157.862335 254.869217,156.500977 252.771378,157.286667 
	C247.544144,159.244370 248.190155,156.100723 247.923630,152.967026 
	C247.724609,150.626831 246.949387,148.335632 245.510376,146.013275 
M467.561584,167.989944 
	C472.148346,168.322021 476.734802,168.658325 481.321960,168.984894 
	C485.278809,169.266586 487.436157,168.087433 487.084198,163.447968 
	C486.678467,158.099274 486.989960,152.696198 486.989960,147.245972 
	C484.195618,147.023834 480.969147,146.767334 476.790039,146.435104 
	C476.426239,149.921143 476.016876,153.843872 475.608490,157.757294 
	C471.023163,157.757294 466.596130,157.757294 462.087402,157.757294 
	C461.833923,154.096802 461.597565,150.683426 461.364349,147.316025 
	C456.811859,146.906189 452.125610,146.484314 447.012573,146.024017 
	C447.012573,150.097839 447.012573,153.855545 447.012573,158.270782 
	C442.425079,157.904236 438.304108,157.574966 433.819672,157.216660 
	C433.819672,153.406250 433.819672,150.316910 433.819672,147.338257 
	C428.990234,147.338257 424.591797,147.338257 420.013977,147.338257 
	C420.013977,152.646118 420.364594,157.662216 419.917328,162.606125 
	C419.451630,167.754211 421.520386,169.227341 426.340729,169.046036 
	C439.755859,168.541458 453.181763,168.322006 467.561584,167.989944 
M363.998199,135.521225 
	C362.681549,133.856445 361.364899,132.191650 360.096893,130.588394 
	C357.777039,133.206619 356.382324,135.316833 354.499023,136.811325 
	C347.224274,142.584290 340.531738,148.509659 343.615753,159.279373 
	C343.749237,159.745483 343.100647,160.386871 343.097504,160.948181 
	C343.058685,167.893051 343.072174,174.838226 343.072174,182.168549 
	C354.296997,182.168549 365.042572,182.168549 375.986542,182.168549 
	C375.986542,171.203430 376.024414,161.054749 375.936066,150.907166 
	C375.925629,149.708954 375.538727,148.246246 374.786713,147.368439 
	C371.466217,143.492355 367.948212,139.785431 363.998199,135.521225 
M258.991119,114.373779 
	C259.963226,107.041260 260.935333,99.708733 261.907410,92.376213 
	C261.495911,92.249283 261.084381,92.122345 260.672882,91.995415 
	C255.704117,106.484840 250.735352,120.974266 245.726517,135.580582 
	C249.830612,135.250107 253.186066,134.979919 255.452103,134.797440 
	C256.664398,128.099747 257.825684,121.683960 258.991119,114.373779 
M435.061127,122.668045 
	C433.948761,126.604095 432.836395,130.540146 431.627991,134.816071 
	C435.141724,134.816071 437.920074,134.816071 440.051941,134.816071 
	C441.059631,128.187485 442.027557,121.780075 443.009216,115.374779 
	C444.027618,108.729645 445.059387,102.086540 446.085327,95.442551 
	C445.529053,95.275452 444.972778,95.108345 444.416504,94.941246 
	C441.455109,103.957321 438.493683,112.973396 435.061127,122.668045 
z"/>
<path fill="#092A47" opacity="1.000000" stroke="none" 
	d="
M173.828903,435.274963 
	C177.074661,433.850189 180.095917,432.696960 183.440033,431.420471 
	C183.440033,437.635406 183.440033,443.833984 183.440033,451.114990 
	C171.770203,456.810760 159.456726,462.756348 147.236160,468.887146 
	C146.045471,469.484497 145.065445,471.099854 144.599060,472.453369 
	C137.445892,493.212952 130.630966,514.091797 123.266258,534.775146 
	C110.766006,569.881470 97.865669,604.845215 85.266991,639.916748 
	C77.623047,661.195557 70.266319,682.577454 62.682766,703.878174 
	C61.618324,706.867981 59.994877,709.658813 59.411907,713.499817 
	C66.779968,710.704102 74.302795,708.255432 81.488655,705.051086 
	C109.086815,692.744324 136.567139,680.173523 164.120880,667.766602 
	C167.231232,666.366089 170.747177,665.772461 173.696945,664.126892 
	C181.934525,659.531555 188.677948,664.474731 195.386963,667.572632 
	C210.999741,674.781799 226.266235,682.736450 241.774490,690.177673 
	C255.924316,696.967163 270.235748,703.418823 284.425720,710.125732 
	C307.007599,720.799072 329.550598,731.554688 352.102112,742.292114 
	C355.037750,743.689880 357.855560,745.367798 360.872650,746.545166 
	C362.019348,746.992676 363.733398,746.750244 364.918610,746.219177 
	C380.422913,739.271790 395.933533,732.334045 411.335236,725.163269 
	C443.479187,710.197693 475.534088,695.040833 507.678253,680.075745 
	C519.814392,674.425598 532.201904,669.308350 544.264832,663.511353 
	C549.879578,660.813049 554.549500,663.009827 559.262512,665.065247 
	C578.269775,673.354553 597.184692,681.855591 616.128906,690.289185 
	C633.250854,697.911621 650.366455,705.548157 668.625793,713.686951 
	C665.862244,705.591736 663.526978,698.462219 660.999146,691.401550 
	C654.199036,672.407715 647.207581,653.481812 640.492920,634.458069 
	C630.749634,606.853394 621.212341,579.176086 611.531799,551.549133 
	C602.762329,526.522522 593.771057,501.572083 585.238037,476.465546 
	C583.611206,471.679077 581.194275,469.510864 576.493652,467.510498 
	C564.357361,462.345764 552.691040,456.053772 540.987183,449.925354 
	C539.584778,449.191040 538.521118,446.754700 538.315247,444.988953 
	C537.706970,439.771667 537.607605,434.495026 537.283447,428.788361 
	C538.724731,429.229523 540.023315,429.626984 541.676025,430.016907 
	C555.037109,436.190704 568.017151,442.429474 581.064697,448.523926 
	C586.018860,450.838013 591.041748,453.067291 596.196045,454.869720 
	C599.854248,456.148987 601.944153,458.256989 603.140198,461.934692 
	C608.161438,477.375214 613.287537,492.783508 618.562073,508.139374 
	C631.601685,546.101746 644.552612,584.096191 657.899536,621.950684 
	C670.901794,658.827759 684.364868,695.542236 697.581848,732.343750 
	C698.755920,735.612671 699.830811,738.952942 700.508484,742.348572 
	C700.824036,743.929504 700.644897,746.471069 699.659668,747.217834 
	C698.582397,748.034302 696.121765,747.751404 694.599426,747.128357 
	C688.151917,744.489929 681.843445,741.513855 675.457764,738.721741 
	C659.802795,731.876526 644.121704,725.090942 628.473145,718.231201 
	C616.926331,713.169495 605.400452,708.059448 593.890015,702.915405 
	C580.405334,696.889099 566.963013,690.767395 553.451782,684.801453 
	C552.221741,684.258362 550.371277,684.004883 549.234375,684.532898 
	C530.418335,693.270996 511.676392,702.168335 492.906128,711.005127 
	C458.787567,727.067688 424.678864,743.151489 390.525299,759.139343 
	C382.413910,762.936462 374.194977,766.521240 365.899323,769.893188 
	C364.161377,770.599548 361.559753,770.595520 359.876495,769.807434 
	C338.506561,759.802307 317.193604,749.673096 295.941589,739.419128 
	C262.608917,723.336304 229.333237,707.135315 196.034836,690.981445 
	C191.712234,688.884399 187.497009,686.512878 183.030212,684.792603 
	C181.281708,684.119141 178.740479,684.330688 176.961105,685.084839 
	C144.591797,698.804749 112.237740,712.563171 79.982643,726.549011 
	C64.778557,733.141479 49.791054,740.233215 34.698849,747.084290 
	C33.797230,747.493591 32.849396,747.814331 31.901495,748.106140 
	C27.863317,749.349670 25.983786,747.833008 27.313250,743.769104 
	C29.884916,735.908203 33.047386,728.242859 35.815712,720.443481 
	C41.635918,704.045959 47.332382,687.604614 53.129856,671.198914 
	C60.583698,650.106079 67.993645,628.996948 75.593414,607.956604 
	C84.261711,583.957886 93.303329,560.092834 101.834091,536.046021 
	C108.646629,516.842651 114.987930,497.471069 121.428535,478.137543 
	C123.468636,472.013519 125.035248,465.731537 127.085342,459.611206 
	C127.608620,458.049011 128.859039,456.219055 130.269196,455.544617 
	C143.878540,449.035645 157.592056,442.744324 171.281891,436.403961 
	C172.028351,436.058258 172.828995,435.829620 173.828903,435.274963 
z"/>
<path fill="#0C2D49" opacity="1.000000" stroke="none" 
	d="
M468.194794,285.413055 
	C468.208069,282.244904 468.733582,280.356995 472.216949,280.005035 
	C475.046753,279.719147 477.717072,278.084106 480.519012,277.252655 
	C491.500641,273.993774 499.723907,280.142975 507.200684,286.308533 
	C521.167542,297.825928 526.271484,313.754211 526.762512,331.348572 
	C527.001892,339.926636 526.804016,348.516876 526.804016,357.608154 
	C511.539734,357.608154 495.472809,357.608154 479.461334,357.608154 
	C479.145142,358.513916 478.851013,358.958466 478.858643,359.397736 
	C478.919312,362.879944 477.868774,367.186829 479.543030,369.556213 
	C480.684479,371.171600 485.658875,370.169434 488.919983,370.179901 
	C501.379944,370.219940 513.840149,370.196075 525.835083,370.196075 
	C525.835083,383.497284 525.835938,396.373688 525.833618,409.250061 
	C525.833374,410.583130 525.804321,411.916229 525.804199,413.249298 
	C525.802490,437.776367 525.926208,462.304413 525.730286,486.829926 
	C525.669617,494.419769 524.711975,502.185089 518.681946,507.651520 
	C516.008057,510.075439 512.144958,512.434937 508.729889,512.574341 
	C495.086365,513.131165 481.405945,512.718628 467.740967,512.849670 
	C462.806335,512.896973 457.876923,513.716248 452.944672,513.720703 
	C448.179657,513.725037 443.399841,512.721069 438.651550,512.884888 
	C426.455780,513.305908 414.278625,514.353699 402.082642,514.612183 
	C399.462738,514.667603 396.062775,513.112000 394.289032,511.152039 
	C389.389832,505.738434 382.792145,504.970398 376.472565,503.938232 
	C363.038605,501.744110 349.595093,502.413574 336.371582,505.830048 
	C334.036346,506.433411 331.316406,507.031036 329.677917,508.584534 
	C323.419922,514.518005 315.434479,513.218567 308.204407,513.555359 
	C299.048401,513.981812 289.812500,512.514099 280.601440,512.056274 
	C278.204071,511.937103 275.771820,512.759949 273.354248,512.768433 
	C254.855057,512.833435 236.342255,512.380554 217.860962,512.959290 
	C206.387299,513.318481 194.891037,504.959229 195.166367,490.000671 
	C195.606827,466.070770 195.941437,442.138245 196.167419,418.205353 
	C196.316162,402.451660 196.195541,386.695435 196.195541,370.429657 
	C210.430908,370.429657 225.495178,370.429657 240.875031,370.429657 
	C240.875031,366.049927 240.875031,362.170959 240.875031,357.956543 
	C225.829803,357.956543 210.886627,357.956543 195.155640,357.956543 
	C195.988144,344.847778 193.926285,332.118011 196.972580,319.282318 
	C199.874496,307.054901 204.231491,295.824310 213.124390,286.793610 
	C218.653000,281.179352 225.703903,278.045990 233.304443,276.361023 
	C235.061234,275.971558 237.145126,276.840637 239.033905,277.309998 
	C242.642273,278.206696 246.338913,278.940857 249.748795,280.348389 
	C251.107498,280.909271 252.677399,283.083771 252.666656,284.512512 
	C252.540543,301.279449 252.194397,318.046295 251.646790,334.804688 
	C251.612946,335.840118 249.422043,337.646698 248.206558,337.670776 
	C236.978973,337.893188 225.745193,337.802032 214.069672,337.802032 
	C216.034500,325.191742 217.925934,314.027588 225.065964,304.871216 
	C228.112167,300.964783 232.501038,298.124329 236.135345,294.648438 
	C237.655502,293.194550 238.800140,291.347992 240.115509,289.679962 
	C237.905945,289.114899 235.443558,287.620453 233.529282,288.141113 
	C223.769714,290.795685 216.810715,297.153442 212.741776,306.310852 
	C207.050385,319.119690 205.664764,332.737457 205.783157,346.696106 
	C224.915421,346.696106 243.696915,346.696106 263.196228,346.696106 
	C263.196228,343.593628 263.257660,340.171661 263.180084,336.752869 
	C263.090607,332.809387 264.745911,330.407776 268.841492,330.217834 
	C272.879974,330.030548 276.627045,333.062195 276.773621,336.666687 
	C276.907867,339.969086 276.802094,343.281219 276.802094,347.195770 
	C285.185364,347.195770 293.290558,347.069427 301.390106,347.229645 
	C310.317139,347.406250 319.250702,347.682892 328.152374,348.321075 
	C329.758118,348.436218 331.223480,350.509552 332.753662,351.678833 
	C330.864685,353.387360 329.108490,356.373596 327.063995,356.586151 
	C317.554535,357.574615 307.965210,357.795410 298.099121,358.306732 
	C298.099121,361.877197 298.099121,365.645142 298.099121,369.923798 
	C307.309143,369.923798 316.711426,369.923798 326.455109,369.923798 
	C326.455109,373.654785 326.455109,376.892853 326.455109,380.637756 
	C310.180115,380.637756 293.780273,380.637756 276.805542,380.637756 
	C276.805542,385.724579 276.823730,390.332184 276.799988,394.939606 
	C276.779816,398.858734 273.782837,402.807892 270.890289,402.790497 
	C267.366669,402.769318 264.201721,399.071411 264.196960,394.957733 
	C264.191711,390.472778 264.195770,385.987793 264.195770,381.154205 
	C245.103226,381.154205 226.220749,381.154205 207.491852,381.154205 
	C207.491852,408.683350 207.491852,436.183380 207.491852,463.804718 
	C210.738968,464.139832 213.330078,464.635925 215.897598,464.534607 
	C216.679337,464.503723 218.054626,462.815155 218.038498,461.905731 
	C217.909637,454.643921 217.320831,447.389008 217.237915,440.127838 
	C217.089493,427.129944 217.220444,414.129059 217.180603,401.129578 
	C217.169266,397.430664 215.560501,392.669922 217.297195,390.364136 
	C218.731506,388.459869 224.017609,389.415680 227.601944,389.180420 
	C235.147781,388.685120 242.696884,388.239899 250.609955,387.751587 
	C250.609955,427.536072 250.609955,466.475830 250.609955,505.805481 
	C255.136871,505.805481 259.352631,505.805481 264.195709,505.805481 
	C264.195709,500.650208 264.174011,495.384033 264.202179,490.118103 
	C264.227173,485.446777 266.287445,483.308075 271.157379,483.235260 
	C275.587341,483.169006 276.592773,486.474823 276.743378,489.917908 
	C276.971436,495.132874 276.802917,500.365173 276.802917,506.275238 
	C278.884369,505.666962 279.571655,505.358826 280.285492,505.273987 
	C288.194763,504.334320 288.276093,504.342651 288.180695,496.470428 
	C287.888672,472.371429 287.480347,448.273773 287.217499,424.174500 
	C287.092896,412.753632 287.196075,401.330261 287.196075,389.898376 
	C301.380829,389.898376 314.350861,389.898376 327.804108,389.898376 
	C327.804108,397.215332 328.279663,403.879669 327.712708,410.454071 
	C326.166443,428.384827 342.368744,440.293854 356.108337,443.099976 
	C371.960022,446.337463 393.243530,429.764557 391.243530,412.820862 
	C390.606689,407.425659 390.524597,401.964722 390.197510,396.533356 
	C389.963409,392.646942 390.462067,389.924896 395.676147,390.067902 
	C407.894104,390.402954 420.127533,390.175049 432.803925,390.175049 
	C432.803925,394.728638 432.803925,399.874023 432.803925,405.019440 
	C432.803925,434.544312 432.809692,464.069214 432.796082,493.594086 
	C432.794525,496.956604 432.484741,500.330200 432.670776,503.679016 
	C432.960602,508.895508 437.213623,507.340546 439.837006,506.933746 
	C441.170624,506.726929 442.826447,503.935577 443.045258,502.153992 
	C443.529236,498.213531 443.123718,494.171051 443.215668,490.173279 
	C443.320618,485.609436 446.539337,481.716217 450.309448,482.377411 
	C454.294617,483.076294 456.216766,486.020966 455.844299,490.306946 
	C455.628693,492.788147 455.804169,495.303406 455.804260,497.803314 
	C455.804474,504.819702 459.350220,507.469421 466.000275,504.988831 
	C467.112122,504.574066 468.111237,502.162506 468.090515,500.688660 
	C467.979065,492.753357 467.295258,484.824371 467.241791,476.890289 
	C467.104736,456.558502 466.966431,436.221344 467.306946,415.894348 
	C467.446686,407.551514 468.816040,399.229248 469.661255,390.535645 
	C481.665436,390.535645 493.903625,390.535645 506.651001,390.535645 
	C506.651001,414.515991 506.651001,438.577698 506.651001,462.915283 
	C509.246582,462.915283 511.344299,462.915283 513.820679,462.915283 
	C513.820679,435.180176 513.820679,407.294800 513.820679,378.804169 
	C508.127991,378.804169 502.360260,378.804169 496.592529,378.804199 
	C485.259552,378.804230 473.924530,378.925476 462.594757,378.735718 
	C458.847046,378.672943 457.307922,379.981964 457.805908,383.657532 
	C458.090485,385.758148 458.297913,387.875885 458.716156,389.950439 
	C459.865356,395.650604 456.981567,401.298767 451.815338,403.280029 
	C448.388580,404.594177 441.202179,397.899414 441.267975,393.057220 
	C441.325317,388.837646 441.996490,384.626434 442.448090,379.867371 
	C424.816040,379.867371 407.742310,379.867371 390.436340,379.867371 
	C390.436340,376.806427 390.436340,374.237640 390.436340,371.341034 
	C401.234192,371.341034 411.846771,371.341034 423.189514,371.341034 
	C423.189514,367.617340 423.547333,364.141541 422.998535,360.815369 
	C422.802216,359.625580 420.461670,358.029785 419.018158,357.940552 
	C413.539276,357.601868 407.998016,357.448456 402.534302,357.892487 
	C395.453949,358.467926 390.029755,357.055542 388.636169,348.242462 
	C390.304535,347.943237 392.387054,347.257080 394.473358,347.245300 
	C410.462311,347.154877 426.451996,347.195618 443.189606,347.195618 
	C442.983368,340.031982 442.553833,332.653870 450.101074,328.339325 
	C458.395355,331.825897 458.090912,339.276642 457.794342,346.893494 
	C476.971466,346.893494 495.856018,346.893494 515.213989,346.893494 
	C515.207825,330.733063 514.672546,314.803833 505.150146,301.050537 
	C499.359558,292.687134 492.064606,285.991730 480.268005,288.108246 
	C478.438507,292.011993 481.595032,294.434875 483.948242,295.532318 
	C501.411743,303.676697 505.895844,318.628876 505.927460,337.221283 
	C500.258606,337.412018 494.435242,337.675293 488.609009,337.783722 
	C483.444275,337.879852 478.264771,337.592010 473.113678,337.873596 
	C469.268738,338.083771 468.174866,336.255981 468.186462,332.908020 
	C468.215942,324.408356 468.195953,315.908569 468.195648,307.408813 
	C468.195374,300.225433 468.194977,293.042023 468.194794,285.413055 
M512.960571,494.009979 
	C513.435303,486.726318 513.910034,479.442657 514.385193,472.151978 
	C500.183594,471.770111 485.080200,486.134125 482.491302,501.982513 
	C488.819550,501.982513 495.128387,502.213287 501.411224,501.908630 
	C506.333984,501.669922 510.445038,499.545807 512.960571,494.009979 
M225.945251,481.452637 
	C220.051453,477.276886 214.355438,472.622528 206.277069,473.119629 
	C206.590515,479.417114 206.294174,485.557037 207.373886,491.444550 
	C208.287262,496.425018 211.413879,501.161163 216.899902,501.799438 
	C223.444626,502.560852 230.145615,501.978882 237.064148,501.978882 
	C236.790436,493.202118 232.128876,487.321960 225.945251,481.452637 
M440.537384,370.980713 
	C451.273834,370.980713 462.010315,370.980713 472.676453,370.980713 
	C472.676453,367.346039 472.676453,364.286743 472.676453,361.304657 
	C458.662964,361.304657 444.959015,361.304657 431.325256,361.304657 
	C431.325256,364.656952 431.325256,367.716248 431.325256,370.980804 
	C434.271820,370.980804 436.910675,370.980804 440.537384,370.980713 
M286.281311,369.982666 
	C292.322266,368.466919 287.398285,364.141327 289.114655,361.254822 
	C276.114746,361.254822 263.739075,361.254822 251.268555,361.254822 
	C251.268555,364.219299 251.268555,366.942596 251.268555,369.983643 
	C262.784760,369.983643 274.051361,369.983643 286.281311,369.982666 
z"/>
<path fill="#AC8743" opacity="1.000000" stroke="none" 
	d="
M472.719574,684.633301 
	C459.192657,690.872437 446.045013,697.050293 432.878143,703.186829 
	C413.888397,712.037292 394.888519,720.866211 375.878693,729.673523 
	C374.545837,730.291016 373.095184,730.654297 370.291840,731.621338 
	C370.291840,719.860779 370.213501,708.776978 370.388977,697.697083 
	C370.411438,696.278442 371.441406,694.544739 372.534180,693.523743 
	C388.858948,678.270325 399.506470,658.949036 410.726959,640.083069 
	C415.023529,632.858948 418.164886,624.955322 422.275024,617.608765 
	C423.699158,615.063293 426.111633,612.631409 428.666199,611.228027 
	C447.343903,600.967163 466.198334,591.028870 484.941101,580.885498 
	C492.640320,576.718689 500.192993,572.281677 507.834137,568.006470 
	C509.093750,567.301758 510.465851,566.798035 512.571228,565.846436 
	C520.056641,595.718811 527.426819,625.131531 534.831726,654.682739 
	C517.544678,662.802612 501.370605,670.341675 485.257141,678.008118 
	C481.103668,679.984314 477.140717,682.360901 472.719574,684.633301 
z"/>
<path fill="#AC8843" opacity="1.000000" stroke="none" 
	d="
M315.395996,644.494873 
	C322.954987,655.939453 330.115631,667.215942 337.816559,678.110535 
	C340.906799,682.482300 345.015778,686.197571 348.984558,689.861206 
	C351.400208,692.091187 352.997986,694.039124 352.854370,697.704346 
	C352.496094,706.848755 352.747406,716.016602 352.726349,725.175049 
	C352.722687,726.762756 352.583557,728.350281 352.503998,730.000061 
	C299.911621,704.718506 247.839142,679.686829 194.839218,654.209290 
	C203.367950,625.413696 212.070038,596.032715 220.910995,566.182861 
	C233.972748,572.973938 246.434280,579.524170 258.962555,585.944214 
	C269.120514,591.149597 279.317169,596.283936 289.582703,601.272766 
	C293.419281,603.137268 296.173279,605.446838 298.073853,609.581604 
	C303.446106,621.269104 309.455963,632.663513 315.395996,644.494873 
z"/>
<path fill="#082A47" opacity="1.000000" stroke="none" 
	d="
M288.205048,295.018066 
	C288.205048,290.694946 288.205048,286.868256 288.205048,282.406403 
	C290.914978,282.001465 293.577332,281.277679 296.244598,281.258850 
	C311.742920,281.149231 327.243835,281.075378 342.741119,281.242706 
	C357.674347,281.403931 372.603973,282.112701 387.535736,282.132507 
	C400.466675,282.149658 413.398285,281.533752 426.329956,281.210144 
	C427.965210,281.169220 429.602386,281.204559 431.550568,281.204559 
	C433.009125,296.840271 433.767365,312.130890 431.817108,327.456085 
	C431.796204,327.620605 431.814606,327.789856 431.798615,327.955322 
	C431.501251,331.033203 432.303772,335.529236 430.626007,336.832977 
	C428.480927,338.499847 424.335541,337.765259 421.051910,337.768341 
	C378.721100,337.807953 336.390228,337.794556 294.059387,337.794586 
	C292.267792,337.794586 290.476166,337.794586 288.205048,337.794586 
	C288.205048,323.415161 288.205048,309.464813 288.205048,295.018066 
z"/>
<path fill="#AC8844" opacity="1.000000" stroke="none" 
	d="
M135.475891,581.607910 
	C157.772110,574.235229 179.379700,565.900879 203.231689,560.723816 
	C201.345001,567.189209 199.832352,572.477295 198.258759,577.747131 
	C191.339996,600.917419 184.444702,624.094910 177.387268,647.222961 
	C176.881943,648.878967 175.445374,650.805359 173.931244,651.511902 
	C160.934402,657.576782 147.817032,663.383179 134.741104,669.278870 
	C115.924446,677.763000 97.112305,686.257141 77.624695,695.050964 
	C81.711311,683.621338 85.583069,672.959106 89.337463,662.255676 
	C95.979683,643.319397 102.560066,624.361267 109.140152,605.403259 
	C110.055122,602.767151 110.881187,600.096313 111.643349,597.411682 
	C113.036209,592.505676 114.766312,588.429138 120.823631,587.222961 
	C125.756477,586.240662 130.372375,583.666687 135.475891,581.607910 
z"/>
<path fill="#092B48" opacity="1.000000" stroke="none" 
	d="
M316.502319,614.520020 
	C313.139832,604.814636 308.793884,595.647095 307.074310,586.010864 
	C303.872192,568.066650 308.037384,551.424805 320.410400,537.491394 
	C331.470612,525.036377 345.757874,518.315552 362.137909,518.465698 
	C379.072479,518.620972 393.178711,525.898743 403.806427,539.795166 
	C413.436279,552.386780 417.290863,566.359741 415.668030,581.827393 
	C415.045715,587.758606 413.942169,594.010864 411.372070,599.297241 
	C403.306458,615.887207 395.053070,632.450745 385.666992,648.311096 
	C379.374023,658.944763 371.013214,668.351685 363.624908,678.342407 
	C361.738739,680.892944 360.297638,679.627747 358.857788,677.974487 
	C342.103790,658.737366 328.043274,637.700012 316.502319,614.520020 
M386.757507,605.577271 
	C387.205170,605.049927 387.652863,604.522583 388.720917,603.717834 
	C400.277405,588.787537 400.999878,572.735840 393.400696,555.170715 
	C385.109985,543.117249 374.236389,536.570007 359.017731,536.827087 
	C344.332153,537.075256 329.505341,549.198303 326.051636,560.988342 
	C321.178284,577.624878 323.840302,592.454651 337.093872,604.617798 
	C350.922302,617.308472 371.050934,618.351990 385.826050,605.896606 
	C385.826050,605.896606 386.068756,605.747375 386.757507,605.577271 
z"/>
<path fill="#AC8844" opacity="1.000000" stroke="none" 
	d="
M650.120239,692.854919 
	C645.770569,690.957214 641.387634,689.131775 637.076782,687.149658 
	C615.430969,677.197083 593.836426,667.132385 572.146912,657.276306 
	C566.902771,654.893250 561.256897,653.391846 556.022888,650.989929 
	C554.101257,650.108154 551.956970,648.038513 551.416992,646.093506 
	C548.162598,634.370361 545.466248,622.493774 542.346375,610.731384 
	C539.183533,598.806885 535.673889,586.974670 532.473267,575.059814 
	C531.503174,571.448425 531.055786,567.696716 530.229736,563.261658 
	C532.347900,563.816650 534.024841,564.127563 535.612000,564.691101 
	C559.984375,573.345032 584.229065,582.381165 608.771301,590.521240 
	C617.352539,593.367432 619.093140,600.259277 621.424072,606.909729 
	C626.703430,621.972168 631.361755,637.251221 636.374878,652.408386 
	C640.771301,665.701050 645.307068,678.947693 649.938843,692.554443 
	C650.096436,692.894226 650.120239,692.854919 650.120239,692.854919 
z"/>
<path fill="#AC8845" opacity="1.000000" stroke="none" 
	d="
M542.254150,500.189636 
	C541.539246,486.775848 540.812256,473.765594 540.031189,459.787567 
	C544.503296,462.055603 548.083679,463.895325 551.685181,465.692688 
	C558.335449,469.011536 565.087585,472.139160 571.629883,475.657654 
	C577.902466,479.031036 578.346069,485.992523 580.388184,491.718384 
	C590.137390,519.054749 599.556641,546.508728 609.080444,573.925293 
	C609.327576,574.636536 609.428528,575.398499 609.965881,577.744751 
	C598.541992,573.931091 588.123413,570.630310 577.830383,566.976135 
	C561.692932,561.247131 545.602051,555.379517 529.602539,549.279236 
	C527.722351,548.562378 525.911316,546.248047 525.161865,544.261658 
	C523.317505,539.373169 522.110413,534.244202 520.506348,528.728210 
	C532.370850,523.253845 540.082886,514.034241 542.254150,500.189636 
z"/>
<path fill="#AC8945" opacity="1.000000" stroke="none" 
	d="
M206.351212,546.651367 
	C193.078705,549.975647 180.046432,552.728882 167.376404,556.652100 
	C153.217010,561.036438 139.390778,566.494995 125.401848,571.435913 
	C124.505997,571.752258 123.457436,571.636292 121.865547,571.774963 
	C124.429214,563.710571 126.709564,555.922241 129.375092,548.268066 
	C137.282242,525.562256 145.282410,502.888153 153.434448,480.269501 
	C154.222641,478.082611 155.917358,475.593048 157.881577,474.572235 
	C165.037155,470.853424 172.485855,467.698669 180.745682,463.908325 
	C180.745682,469.534912 180.526672,474.430023 180.793655,479.298462 
	C181.272110,488.023346 181.258240,496.880676 182.873032,505.413391 
	C185.380966,518.665527 196.224640,527.264709 209.798889,528.287231 
	C210.576752,528.345886 211.333389,528.686096 213.023224,529.147156 
	C210.871887,535.132507 208.811569,540.864502 206.351212,546.651367 
z"/>
<path fill="#AC8946" opacity="1.000000" stroke="none" 
	d="
M418.348938,530.834839 
	C420.023315,530.056396 421.670410,529.328125 423.319611,529.323303 
	C448.472626,529.250366 473.626221,529.330078 498.778900,529.210754 
	C502.665527,529.192322 504.589386,529.656982 505.010162,534.433411 
	C505.520081,540.222229 507.764709,545.858337 509.074585,550.857605 
	C482.671417,565.563660 456.997803,579.863403 430.601990,594.565369 
	C432.890045,580.115173 433.896271,566.794739 429.158966,553.887878 
	C426.900482,547.734619 423.646423,541.945129 420.812988,536.005432 
	C420.039398,534.383789 419.155792,532.814758 418.348938,530.834839 
z"/>
<path fill="#AC8946" opacity="1.000000" stroke="none" 
	d="
M247.483765,564.406311 
	C240.581497,560.752380 234.010544,557.266296 227.417984,553.821411 
	C225.133072,552.627502 223.935394,551.427612 224.973633,548.369019 
	C226.763031,543.097473 227.727844,537.550598 229.356644,532.216431 
	C229.718582,531.031067 231.395096,529.411316 232.475830,529.404053 
	C256.401093,529.243164 280.327667,529.281006 305.986664,529.281006 
	C293.330200,546.674377 288.541748,565.152954 291.460938,586.193115 
	C274.909760,582.031555 262.435669,571.067566 247.483765,564.406311 
z"/>
<path fill="#0E2E49" opacity="1.000000" stroke="none" 
	d="
M334.191376,398.999695 
	C334.191376,382.900574 334.191376,367.301392 334.191376,351.447876 
	C351.815704,351.447876 369.029907,351.447876 386.808411,351.447876 
	C386.808411,355.636108 386.808411,359.740723 386.808411,363.845337 
	C386.808441,378.651703 386.230652,393.486877 386.966705,408.256561 
	C387.743439,423.841949 375.731995,430.826508 364.992889,433.787781 
	C352.304749,437.286438 343.541931,430.794006 335.930115,421.918884 
	C334.786713,420.585724 334.336517,418.324127 334.267456,416.465881 
	C334.057495,410.817322 334.191376,405.156006 334.191376,398.999695 
M375.977692,392.499939 
	C375.977692,382.741302 375.977692,372.982635 375.977692,363.365051 
	C364.620758,363.365051 353.891541,363.365051 343.019775,363.365051 
	C343.019775,377.857727 343.104370,392.009918 342.962463,406.159790 
	C342.925293,409.867249 343.604919,413.042389 345.624908,416.269531 
	C349.205383,421.989594 356.564850,426.138580 362.203369,423.671387 
	C367.005402,421.570282 371.303284,418.058838 375.321045,414.588776 
	C376.451355,413.612488 375.924255,410.583923 375.954407,408.493774 
	C376.026428,403.496704 375.977661,398.497925 375.977692,392.499939 
z"/>
<path fill="#12324D" opacity="1.000000" stroke="none" 
	d="
M443.630157,479.338348 
	C443.312836,457.594482 443.312836,436.186371 443.312836,414.479187 
	C447.731171,414.479187 451.962494,414.479187 456.509460,414.479187 
	C456.509460,436.008606 456.509460,457.537872 456.509460,479.674072 
	C452.419373,479.674072 448.183411,479.674072 443.630157,479.338348 
z"/>
<path fill="#12324D" opacity="1.000000" stroke="none" 
	d="
M277.819733,424.046600 
	C277.819733,442.780182 277.819733,461.022125 277.819733,479.541260 
	C273.228210,479.541260 268.998169,479.541260 264.471313,479.541260 
	C264.471313,457.960205 264.471313,436.435913 264.471313,414.544739 
	C268.596863,414.544739 272.827911,414.544739 277.819733,414.544739 
	C277.819733,417.402649 277.819733,420.478790 277.819733,424.046600 
z"/>
<path fill="#13334E" opacity="1.000000" stroke="none" 
	d="
M442.630249,296.182739 
	C442.993835,292.668671 443.082062,289.512970 443.177917,286.357544 
	C443.213257,285.194427 442.878235,283.816650 443.381866,282.908020 
	C445.131836,279.750824 445.771790,274.858978 450.670563,275.355103 
	C455.895172,275.884277 456.603485,280.619324 456.729736,284.680817 
	C457.019562,294.004944 456.822968,303.344208 456.823669,312.677307 
	C456.823914,315.829163 456.823730,318.981018 456.823730,322.476807 
	C452.357574,322.476807 448.117188,322.476807 443.621826,322.476807 
	C443.204773,313.919067 442.781342,305.230133 442.630249,296.182739 
z"/>
<path fill="#13334E" opacity="1.000000" stroke="none" 
	d="
M276.823975,291.061676 
	C276.823975,302.143463 276.823975,312.735138 276.823975,323.572784 
	C272.142761,323.572784 267.879913,323.572784 263.176025,323.572784 
	C263.176025,319.922943 263.176025,316.206451 263.176025,312.489960 
	C263.176025,305.512878 262.978668,298.527740 263.261383,291.562164 
	C263.397552,288.207458 263.920715,284.662659 265.247864,281.632874 
	C266.167633,279.533203 268.694153,276.854767 270.619385,276.758148 
	C274.101990,276.583405 276.487427,279.343781 276.781433,283.098999 
	C276.975342,285.575806 276.821899,288.079773 276.823975,291.061676 
z"/>
<path fill="#13324D" opacity="1.000000" stroke="none" 
	d="
M348.881897,251.932419 
	C354.625031,245.602234 359.511902,245.394165 365.257538,248.007675 
	C374.051880,252.007965 376.571259,256.672058 375.403503,266.564941 
	C365.220184,266.564941 355.003357,266.564941 344.590393,266.564941 
	C343.173767,260.956146 345.026184,256.339996 348.881897,251.932419 
z"/>
<path fill="#16354F" opacity="1.000000" stroke="none" 
	d="
M446.092896,202.244385 
	C447.388397,198.474457 449.872070,195.753693 453.334351,196.583511 
	C457.078461,197.480881 459.963043,200.486816 459.785431,204.905441 
	C459.554535,210.649780 458.993927,216.380859 458.545410,222.526215 
	C454.687469,223.028488 450.730865,223.543610 446.028839,224.155777 
	C446.028839,216.548462 446.028839,209.591934 446.092896,202.244385 
z"/>
<path fill="#163550" opacity="1.000000" stroke="none" 
	d="
M263.291229,199.514542 
	C265.624756,198.550003 267.820343,197.064636 269.752502,197.351746 
	C273.135040,197.854370 274.901031,200.432205 274.853973,204.094879 
	C274.772766,210.411423 274.831482,216.729752 274.831482,223.439209 
	C270.666382,223.439209 266.649231,223.439209 262.620056,223.439209 
	C262.131653,217.482788 261.458435,211.614517 261.276123,205.731049 
	C261.215424,203.771347 262.412567,201.772659 263.291229,199.514542 
z"/>
<path fill="#243F57" opacity="1.000000" stroke="none" 
	d="
M399.780243,250.861893 
	C396.520050,250.742538 393.191620,250.553558 393.346375,246.869324 
	C393.427277,244.943893 395.699371,241.508820 396.855591,241.560852 
	C399.326141,241.672028 402.628876,242.993896 403.935547,244.934357 
	C406.252014,248.374557 403.350525,250.044540 399.780243,250.861893 
z"/>
<path fill="#243F57" opacity="1.000000" stroke="none" 
	d="
M453.113403,248.859528 
	C449.730682,248.180832 447.078796,246.816696 448.346436,243.309616 
	C448.960205,241.611618 451.017059,239.782242 452.773956,239.300003 
	C455.569214,238.532745 458.358856,239.227997 458.874329,243.038284 
	C459.438782,247.210220 457.029419,248.516983 453.113403,248.859528 
z"/>
<path fill="#243F57" opacity="1.000000" stroke="none" 
	d="
M269.012817,248.866104 
	C263.603302,248.929047 263.704590,245.510162 264.253296,242.142868 
	C264.915588,238.078690 268.379089,238.645309 270.813477,239.331039 
	C274.078674,240.250809 275.044189,243.306793 273.711975,246.254227 
	C273.142731,247.513687 270.904541,248.018814 269.012817,248.866104 
z"/>
<path fill="#254057" opacity="1.000000" stroke="none" 
	d="
M324.653168,250.864868 
	C323.568970,250.869507 322.835693,251.060455 322.267944,250.834839 
	C320.527618,250.143356 318.850830,249.292053 317.149323,248.502899 
	C318.671997,246.438507 319.818420,243.679703 321.860229,242.573502 
	C323.060516,241.923233 326.693909,243.389801 327.415558,244.820786 
	C328.354401,246.682419 329.276764,250.204086 324.653168,250.864868 
z"/>
<path fill="#AC8844" opacity="1.000000" stroke="none" 
	d="
M650.079895,692.906616 
	C650.203308,693.192566 650.343262,693.466125 650.483215,693.739685 
	C650.382263,693.560181 650.281311,693.380676 650.150330,693.028015 
	C650.120239,692.854919 650.096436,692.894226 650.079895,692.906616 
z"/>
<path fill="#FEFFFF" opacity="1.000000" stroke="none" 
	d="
M414.812988,193.015930 
	C416.192413,193.970078 417.817993,194.889771 417.863770,195.882339 
	C418.116913,201.369492 417.733948,206.889618 418.065521,212.368378 
	C418.325714,216.667068 417.068573,218.153381 412.535919,218.092606 
	C394.043182,217.844574 375.545135,217.989212 357.049072,217.989212 
	C339.234100,217.989197 321.419159,217.989197 303.005280,217.989197 
	C303.005280,210.038147 303.005280,202.309204 303.005280,194.299026 
	C311.004700,193.838959 319.616974,193.343658 328.335327,192.842239 
	C328.335327,196.567261 328.335327,199.918518 328.335327,203.640839 
	C333.919739,203.640839 339.775757,203.640839 345.883850,203.640839 
	C345.883850,200.614761 345.883850,197.660278 345.883850,194.357941 
	C355.190369,194.357941 364.264771,194.357941 373.981934,194.357941 
	C374.431427,197.600021 374.913574,201.077744 375.374420,204.401611 
	C380.303070,204.401611 385.305603,204.401611 390.774384,204.401611 
	C390.774384,200.164322 390.774384,196.426147 390.774384,193.015137 
	C398.936707,193.015137 406.633270,193.015137 414.812988,193.015930 
z"/>
<path fill="#FDFFFF" opacity="1.000000" stroke="none" 
	d="
M245.970551,146.017944 
	C246.949387,148.335632 247.724609,150.626831 247.923630,152.967026 
	C248.190155,156.100723 247.544144,159.244370 252.771378,157.286667 
	C254.869217,156.500977 257.771179,157.862335 260.828827,158.325485 
	C260.481995,154.084167 260.173370,150.310349 259.821686,146.010056 
	C264.771637,146.397797 269.192139,146.744064 273.909576,147.113586 
	C273.909576,149.713165 273.909576,153.013855 273.909576,156.745346 
	C276.207306,157.184082 278.358856,157.869370 280.535004,157.959229 
	C287.212311,158.234985 287.176208,158.147141 287.030304,151.742218 
	C286.963409,148.806900 287.716339,146.634308 291.468536,146.961914 
	C294.419922,147.219620 297.411774,147.013641 301.192749,147.013641 
	C300.712280,154.063004 300.250305,160.840576 299.741852,168.300659 
	C277.858307,168.300659 256.140991,168.300659 234.218704,168.300659 
	C234.218704,160.899628 234.218704,154.158081 234.218704,147.431366 
	C238.117691,146.941696 241.814026,146.477493 245.970551,146.017944 
z"/>
<path fill="#FDFFFF" opacity="1.000000" stroke="none" 
	d="
M467.082489,167.989944 
	C453.181763,168.322006 439.755859,168.541458 426.340729,169.046036 
	C421.520386,169.227341 419.451630,167.754211 419.917328,162.606125 
	C420.364594,157.662216 420.013977,152.646118 420.013977,147.338257 
	C424.591797,147.338257 428.990234,147.338257 433.819672,147.338257 
	C433.819672,150.316910 433.819672,153.406250 433.819672,157.216660 
	C438.304108,157.574966 442.425079,157.904236 447.012573,158.270782 
	C447.012573,153.855545 447.012573,150.097839 447.012573,146.024017 
	C452.125610,146.484314 456.811859,146.906189 461.364349,147.316025 
	C461.597565,150.683426 461.833923,154.096802 462.087402,157.757294 
	C466.596130,157.757294 471.023163,157.757294 475.608490,157.757294 
	C476.016876,153.843872 476.426239,149.921143 476.790039,146.435104 
	C480.969147,146.767334 484.195618,147.023834 486.989960,147.245972 
	C486.989960,152.696198 486.678467,158.099274 487.084198,163.447968 
	C487.436157,168.087433 485.278809,169.266586 481.321960,168.984894 
	C476.734802,168.658325 472.148346,168.322021 467.082489,167.989944 
z"/>
<path fill="#FDFFFF" opacity="1.000000" stroke="none" 
	d="
M364.249939,135.769241 
	C367.948212,139.785431 371.466217,143.492355 374.786713,147.368439 
	C375.538727,148.246246 375.925629,149.708954 375.936066,150.907166 
	C376.024414,161.054749 375.986542,171.203430 375.986542,182.168549 
	C365.042572,182.168549 354.296997,182.168549 343.072174,182.168549 
	C343.072174,174.838226 343.058685,167.893051 343.097504,160.948181 
	C343.100647,160.386871 343.749237,159.745483 343.615753,159.279373 
	C340.531738,148.509659 347.224274,142.584290 354.499023,136.811325 
	C356.382324,135.316833 357.777039,133.206619 360.096893,130.588394 
	C361.364899,132.191650 362.681549,133.856445 364.249939,135.769241 
M355.393646,152.069519 
	C351.315857,157.053009 353.322144,162.501480 353.850250,167.988419 
	C354.181427,171.428818 355.516998,172.057144 358.512177,172.056839 
	C366.005859,172.056076 366.006317,172.165344 366.005371,164.321045 
	C366.005005,161.492401 366.592896,158.490479 365.829010,155.885284 
	C365.107361,153.424149 363.297394,150.950638 361.271851,149.375412 
	C360.519318,148.790192 357.795776,150.739487 355.393646,152.069519 
z"/>
<path fill="#FBFFFF" opacity="1.000000" stroke="none" 
	d="
M258.989044,114.820976 
	C257.825684,121.683960 256.664398,128.099747 255.452103,134.797440 
	C253.186066,134.979919 249.830612,135.250107 245.726517,135.580582 
	C250.735352,120.974266 255.704117,106.484840 260.672882,91.995415 
	C261.084381,92.122345 261.495911,92.249283 261.907410,92.376213 
	C260.935333,99.708733 259.963226,107.041260 258.989044,114.820976 
z"/>
<path fill="#FBFFFF" opacity="1.000000" stroke="none" 
	d="
M435.296692,122.328758 
	C438.493683,112.973396 441.455109,103.957321 444.416504,94.941246 
	C444.972778,95.108345 445.529053,95.275452 446.085327,95.442551 
	C445.059387,102.086540 444.027618,108.729645 443.009216,115.374779 
	C442.027557,121.780075 441.059631,128.187485 440.051941,134.816071 
	C437.920074,134.816071 435.141724,134.816071 431.627991,134.816071 
	C432.836395,130.540146 433.948761,126.604095 435.296692,122.328758 
z"/>
<path fill="#000000" opacity="1.000000" stroke="none" 
	d="
M59.989594,267.983398 
	C60.439926,267.831085 60.921974,267.717102 61.404030,267.603088 
	C61.130527,267.761322 60.857018,267.919525 60.335617,268.086731 
	C60.087727,268.095703 60.021317,268.021667 59.989594,267.983398 
z"/>
<path fill="#FEFFFF" opacity="1.000000" stroke="none" 
	d="
M512.830933,494.397583 
	C510.445038,499.545807 506.333984,501.669922 501.411224,501.908630 
	C495.128387,502.213287 488.819550,501.982513 482.491302,501.982513 
	C485.080200,486.134125 500.183594,471.770111 514.385193,472.151978 
	C513.910034,479.442657 513.435303,486.726318 512.830933,494.397583 
z"/>
<path fill="#FEFFFF" opacity="1.000000" stroke="none" 
	d="
M226.193024,481.718140 
	C232.128876,487.321960 236.790436,493.202118 237.064148,501.978882 
	C230.145615,501.978882 223.444626,502.560852 216.899902,501.799438 
	C211.413879,501.161163 208.287262,496.425018 207.373886,491.444550 
	C206.294174,485.557037 206.590515,479.417114 206.277069,473.119629 
	C214.355438,472.622528 220.051453,477.276886 226.193024,481.718140 
z"/>
<path fill="#FCFFFF" opacity="1.000000" stroke="none" 
	d="
M440.043457,370.980774 
	C436.910675,370.980804 434.271820,370.980804 431.325256,370.980804 
	C431.325256,367.716248 431.325256,364.656952 431.325256,361.304657 
	C444.959015,361.304657 458.662964,361.304657 472.676453,361.304657 
	C472.676453,364.286743 472.676453,367.346039 472.676453,370.980713 
	C462.010315,370.980713 451.273834,370.980713 440.043457,370.980774 
z"/>
<path fill="#FDFFFF" opacity="1.000000" stroke="none" 
	d="
M285.799652,369.983154 
	C274.051361,369.983643 262.784760,369.983643 251.268555,369.983643 
	C251.268555,366.942596 251.268555,364.219299 251.268555,361.254822 
	C263.739075,361.254822 276.114746,361.254822 289.114655,361.254822 
	C287.398285,364.141327 292.322266,368.466919 285.799652,369.983154 
z"/>
<path fill="#EDF2F3" opacity="1.000000" stroke="none" 
	d="
M385.545959,605.844360 
	C371.050934,618.351990 350.922302,617.308472 337.093872,604.617798 
	C323.840302,592.454651 321.178284,577.624878 326.051636,560.988342 
	C329.505341,549.198303 344.332153,537.075256 359.017731,536.827087 
	C374.236389,536.570007 385.109985,543.117249 393.069611,555.545288 
	C389.481079,556.283630 386.223602,556.647400 382.660400,556.873962 
	C380.909241,554.744629 379.463837,552.752380 378.713501,551.718201 
	C371.883911,557.467957 366.310638,562.160095 359.499542,567.894287 
	C355.803619,563.227173 351.325073,557.571899 347.571167,552.831604 
	C343.758331,556.755371 340.950500,559.644897 338.076172,562.602844 
	C342.346252,566.273621 347.634552,570.819763 352.922882,575.365906 
	C353.283569,576.724548 353.644257,578.083191 354.004944,579.441833 
	C348.492889,583.498474 342.980835,587.555176 337.907837,591.288696 
	C340.935486,594.488953 343.538727,597.240601 345.362640,599.168518 
	C350.684326,594.684509 355.950104,590.247681 362.750336,584.517883 
	C366.921692,589.837524 371.648743,595.865784 376.553314,602.120422 
	C378.348541,599.962585 379.166748,598.979065 380.342712,598.060181 
	C382.315613,600.697937 383.930786,603.271179 385.545959,605.844360 
z"/>
<path fill="#E7EFF3" opacity="1.000000" stroke="none" 
	d="
M385.686005,605.870483 
	C383.930786,603.271179 382.315613,600.697937 380.454956,597.725830 
	C385.372040,590.715515 385.422821,590.661743 379.503784,585.072083 
	C376.426910,582.166504 373.133820,579.489868 371.002197,577.635315 
	C375.978912,571.733582 380.744965,566.081665 385.612274,560.309631 
	C384.999481,559.545715 383.982819,558.278442 382.966156,557.011108 
	C386.223602,556.647400 389.481079,556.283630 393.206970,555.885559 
	C400.999878,572.735840 400.277405,588.787537 388.035767,603.909485 
	C386.923309,604.649841 386.496033,605.198608 386.068726,605.747375 
	C386.068756,605.747375 385.826050,605.896606 385.686005,605.870483 
z"/>
<path fill="#EDF2F3" opacity="1.000000" stroke="none" 
	d="
M386.413116,605.662354 
	C386.496033,605.198608 386.923309,604.649841 387.725586,604.048157 
	C387.652863,604.522583 387.205170,605.049927 386.413116,605.662354 
z"/>
<path fill="#FEFFFF" opacity="1.000000" stroke="none" 
	d="
M375.977692,392.999878 
	C375.977661,398.497925 376.026428,403.496704 375.954407,408.493774 
	C375.924255,410.583923 376.451355,413.612488 375.321045,414.588776 
	C371.303284,418.058838 367.005402,421.570282 362.203369,423.671387 
	C356.564850,426.138580 349.205383,421.989594 345.624908,416.269531 
	C343.604919,413.042389 342.925293,409.867249 342.962463,406.159790 
	C343.104370,392.009918 343.019775,377.857727 343.019775,363.365051 
	C353.891541,363.365051 364.620758,363.365051 375.977692,363.365051 
	C375.977692,372.982635 375.977692,382.741302 375.977692,392.999878 
M357.738098,410.002075 
	C360.480988,409.031342 364.444641,408.854279 365.703125,406.918488 
	C368.053192,403.303772 367.616791,399.068756 364.155426,395.380615 
	C362.731323,393.863312 362.535858,391.088654 362.042419,388.828949 
	C361.441833,386.078522 363.374725,381.381683 359.207245,381.294525 
	C354.580719,381.197845 356.531158,386.033600 355.963684,388.900543 
	C355.492340,391.281708 355.508575,394.556610 353.984192,395.766388 
	C350.799652,398.293610 350.781036,401.312897 351.079712,404.507263 
	C351.387146,407.795380 353.596161,409.592072 357.738098,410.002075 
z"/>
<path fill="#062642" opacity="1.000000" stroke="none" 
	d="
M355.682373,151.801239 
	C357.795776,150.739487 360.519318,148.790192 361.271851,149.375412 
	C363.297394,150.950638 365.107361,153.424149 365.829010,155.885284 
	C366.592896,158.490479 366.005005,161.492401 366.005371,164.321045 
	C366.006317,172.165344 366.005859,172.056076 358.512177,172.056839 
	C355.516998,172.057144 354.181427,171.428818 353.850250,167.988419 
	C353.322144,162.501480 351.315857,157.053009 355.682373,151.801239 
z"/>
<path fill="#052743" opacity="1.000000" stroke="none" 
	d="
M382.660400,556.873962 
	C383.982819,558.278442 384.999481,559.545715 385.612274,560.309631 
	C380.744965,566.081665 375.978912,571.733582 371.002197,577.635315 
	C373.133820,579.489868 376.426910,582.166504 379.503784,585.072083 
	C385.422821,590.661743 385.372040,590.715515 380.097229,597.661255 
	C379.166748,598.979065 378.348541,599.962585 376.553314,602.120422 
	C371.648743,595.865784 366.921692,589.837524 362.750336,584.517883 
	C355.950104,590.247681 350.684326,594.684509 345.362640,599.168518 
	C343.538727,597.240601 340.935486,594.488953 337.907837,591.288696 
	C342.980835,587.555176 348.492889,583.498474 354.004944,579.441833 
	C353.644257,578.083191 353.283569,576.724548 352.922882,575.365906 
	C347.634552,570.819763 342.346252,566.273621 338.076172,562.602844 
	C340.950500,559.644897 343.758331,556.755371 347.571167,552.831604 
	C351.325073,557.571899 355.803619,563.227173 359.499542,567.894287 
	C366.310638,562.160095 371.883911,557.467957 378.713501,551.718201 
	C379.463837,552.752380 380.909241,554.744629 382.660400,556.873962 
z"/>
<path fill="#072642" opacity="1.000000" stroke="none" 
	d="
M357.309509,410.000977 
	C353.596161,409.592072 351.387146,407.795380 351.079712,404.507263 
	C350.781036,401.312897 350.799652,398.293610 353.984192,395.766388 
	C355.508575,394.556610 355.492340,391.281708 355.963684,388.900543 
	C356.531158,386.033600 354.580719,381.197845 359.207245,381.294525 
	C363.374725,381.381683 361.441833,386.078522 362.042419,388.828949 
	C362.535858,391.088654 362.731323,393.863312 364.155426,395.380615 
	C367.616791,399.068756 368.053192,403.303772 365.703125,406.918488 
	C364.444641,408.854279 360.480988,409.031342 357.309509,410.000977 
z"/>
</svg>